G04 #@! TF.GenerationSoftware,KiCad,Pcbnew,9.0.9-9.0.9~ubuntu22.04.1*
G04 #@! TF.CreationDate,2026-07-23T20:04:56+07:00*
G04 #@! TF.ProjectId,custom_phonecase,63757374-6f6d-45f7-9068-6f6e65636173,rev?*
G04 #@! TF.SameCoordinates,Original*
G04 #@! TF.FileFunction,Soldermask,Top*
G04 #@! TF.FilePolarity,Negative*
%FSLAX46Y46*%
G04 Gerber Fmt 4.6, Leading zero omitted, Abs format (unit mm)*
G04 Created by KiCad (PCBNEW 9.0.9-9.0.9~ubuntu22.04.1) date 2026-07-23 20:04:56*
%MOMM*%
%LPD*%
G01*
G04 APERTURE LIST*
G04 Aperture macros list*
%AMRoundRect*
0 Rectangle with rounded corners*
0 $1 Rounding radius*
0 $2 $3 $4 $5 $6 $7 $8 $9 X,Y pos of 4 corners*
0 Add a 4 corners polygon primitive as box body*
4,1,4,$2,$3,$4,$5,$6,$7,$8,$9,$2,$3,0*
0 Add four circle primitives for the rounded corners*
1,1,$1+$1,$2,$3*
1,1,$1+$1,$4,$5*
1,1,$1+$1,$6,$7*
1,1,$1+$1,$8,$9*
0 Add four rect primitives between the rounded corners*
20,1,$1+$1,$2,$3,$4,$5,0*
20,1,$1+$1,$4,$5,$6,$7,0*
20,1,$1+$1,$6,$7,$8,$9,0*
20,1,$1+$1,$8,$9,$2,$3,0*%
G04 Aperture macros list end*
%ADD10RoundRect,0.250000X0.475000X-0.337500X0.475000X0.337500X-0.475000X0.337500X-0.475000X-0.337500X0*%
%ADD11RoundRect,0.237500X0.250000X0.237500X-0.250000X0.237500X-0.250000X-0.237500X0.250000X-0.237500X0*%
%ADD12R,2.000000X1.500000*%
%ADD13RoundRect,0.237500X0.237500X-0.250000X0.237500X0.250000X-0.237500X0.250000X-0.237500X-0.250000X0*%
%ADD14RoundRect,0.237500X-0.300000X-0.237500X0.300000X-0.237500X0.300000X0.237500X-0.300000X0.237500X0*%
%ADD15RoundRect,0.237500X-0.237500X0.250000X-0.237500X-0.250000X0.237500X-0.250000X0.237500X0.250000X0*%
%ADD16C,1.524000*%
%ADD17C,1.800000*%
%ADD18RoundRect,0.237500X0.300000X0.237500X-0.300000X0.237500X-0.300000X-0.237500X0.300000X-0.237500X0*%
%ADD19C,2.100000*%
%ADD20R,1.700000X1.700000*%
%ADD21O,1.700000X1.700000*%
%ADD22RoundRect,0.237500X-0.237500X0.300000X-0.237500X-0.300000X0.237500X-0.300000X0.237500X0.300000X0*%
%ADD23RoundRect,0.102000X-1.512500X-0.762000X1.512500X-0.762000X1.512500X0.762000X-1.512500X0.762000X0*%
G04 APERTURE END LIST*
D10*
X102489000Y-47396400D03*
X102489000Y-49471400D03*
D11*
X103733600Y-62382400D03*
X101908600Y-62382400D03*
D12*
X102291200Y-73890800D03*
X102291200Y-77090800D03*
D13*
X123952000Y-61417200D03*
X123952000Y-63242200D03*
D14*
X116828700Y-62090800D03*
X115103700Y-62090800D03*
D15*
X121005600Y-63195200D03*
X121005600Y-61370200D03*
D16*
X115519200Y-57581800D03*
X118059200Y-57581800D03*
X120599200Y-57581800D03*
X123139200Y-57556400D03*
D17*
X110744000Y-50927000D03*
X110744000Y-53467000D03*
X110744000Y-56007000D03*
D18*
X101956700Y-60020200D03*
X103681700Y-60020200D03*
D19*
X96791200Y-70090800D03*
X96791200Y-81090800D03*
X96791200Y-73090800D03*
X96791200Y-78090800D03*
D20*
X93371200Y-34417000D03*
D21*
X90831200Y-34417000D03*
X88291200Y-34417000D03*
D15*
X101930200Y-64541400D03*
X101930200Y-66366400D03*
D22*
X107137200Y-47752000D03*
X107137200Y-49477000D03*
D23*
X82821200Y-62370800D03*
X82821200Y-59830800D03*
X82821200Y-57290800D03*
X82821200Y-54750800D03*
X82821200Y-52210800D03*
X82821200Y-49670800D03*
X82821200Y-47130800D03*
X82821200Y-44590800D03*
X98791200Y-44590800D03*
X98791200Y-47130800D03*
X98791200Y-49670800D03*
X98791200Y-52210800D03*
X98791200Y-54750800D03*
X98791200Y-57290800D03*
X98791200Y-59830800D03*
X98791200Y-62370800D03*
M02*
