%TF.GenerationSoftware,KiCad,Pcbnew,9.0.9-9.0.9~ubuntu22.04.1*%
%TF.CreationDate,2026-07-23T20:02:46+07:00*%
%TF.ProjectId,custom_phonecase,63757374-6f6d-45f7-9068-6f6e65636173,rev?*%
%TF.SameCoordinates,Original*%
%TF.FileFunction,Drillmap*%
%TF.FilePolarity,Positive*%
%FSLAX45Y45*%
G04 Gerber Fmt 4.5, Leading zero omitted, Abs format (unit mm)*
G04 Created by KiCad (PCBNEW 9.0.9-9.0.9~ubuntu22.04.1) date 2026-07-23 20:02:46*
%MOMM*%
%LPD*%
G01*
G04 APERTURE LIST*
%ADD10C,0.050000*%
%ADD11C,0.200000*%
G04 APERTURE END LIST*
D10*
X12677140Y-4514080D02*
X12677140Y-6558280D01*
X10181620Y-4514080D02*
X12677140Y-4514080D01*
X10181620Y-3259080D02*
X10181620Y-4514080D01*
X8024620Y-3259080D02*
X10181620Y-3259080D01*
X10508620Y-6559080D02*
X12677140Y-6559080D01*
X10508620Y-8374380D02*
X10508620Y-6559080D01*
X8031540Y-8374380D02*
X10508620Y-8374380D01*
X8024620Y-3259080D02*
X8031540Y-8374380D01*
D11*
X8282897Y-8688364D02*
X8282897Y-8488364D01*
X8282897Y-8488364D02*
X8330516Y-8488364D01*
X8330516Y-8488364D02*
X8359087Y-8497888D01*
X8359087Y-8497888D02*
X8378135Y-8516935D01*
X8378135Y-8516935D02*
X8387659Y-8535983D01*
X8387659Y-8535983D02*
X8397183Y-8574078D01*
X8397183Y-8574078D02*
X8397183Y-8602650D01*
X8397183Y-8602650D02*
X8387659Y-8640745D01*
X8387659Y-8640745D02*
X8378135Y-8659792D01*
X8378135Y-8659792D02*
X8359087Y-8678840D01*
X8359087Y-8678840D02*
X8330516Y-8688364D01*
X8330516Y-8688364D02*
X8282897Y-8688364D01*
X8482897Y-8688364D02*
X8482897Y-8555030D01*
X8482897Y-8593126D02*
X8492421Y-8574078D01*
X8492421Y-8574078D02*
X8501944Y-8564554D01*
X8501944Y-8564554D02*
X8520992Y-8555030D01*
X8520992Y-8555030D02*
X8540040Y-8555030D01*
X8606706Y-8688364D02*
X8606706Y-8555030D01*
X8606706Y-8488364D02*
X8597183Y-8497888D01*
X8597183Y-8497888D02*
X8606706Y-8507411D01*
X8606706Y-8507411D02*
X8616230Y-8497888D01*
X8616230Y-8497888D02*
X8606706Y-8488364D01*
X8606706Y-8488364D02*
X8606706Y-8507411D01*
X8730516Y-8688364D02*
X8711468Y-8678840D01*
X8711468Y-8678840D02*
X8701944Y-8659792D01*
X8701944Y-8659792D02*
X8701944Y-8488364D01*
X8835278Y-8688364D02*
X8816230Y-8678840D01*
X8816230Y-8678840D02*
X8806706Y-8659792D01*
X8806706Y-8659792D02*
X8806706Y-8488364D01*
X9063849Y-8688364D02*
X9063849Y-8488364D01*
X9063849Y-8488364D02*
X9130516Y-8631221D01*
X9130516Y-8631221D02*
X9197183Y-8488364D01*
X9197183Y-8488364D02*
X9197183Y-8688364D01*
X9378135Y-8688364D02*
X9378135Y-8583602D01*
X9378135Y-8583602D02*
X9368611Y-8564554D01*
X9368611Y-8564554D02*
X9349564Y-8555030D01*
X9349564Y-8555030D02*
X9311468Y-8555030D01*
X9311468Y-8555030D02*
X9292421Y-8564554D01*
X9378135Y-8678840D02*
X9359087Y-8688364D01*
X9359087Y-8688364D02*
X9311468Y-8688364D01*
X9311468Y-8688364D02*
X9292421Y-8678840D01*
X9292421Y-8678840D02*
X9282897Y-8659792D01*
X9282897Y-8659792D02*
X9282897Y-8640745D01*
X9282897Y-8640745D02*
X9292421Y-8621697D01*
X9292421Y-8621697D02*
X9311468Y-8612173D01*
X9311468Y-8612173D02*
X9359087Y-8612173D01*
X9359087Y-8612173D02*
X9378135Y-8602650D01*
X9473373Y-8555030D02*
X9473373Y-8755030D01*
X9473373Y-8564554D02*
X9492421Y-8555030D01*
X9492421Y-8555030D02*
X9530516Y-8555030D01*
X9530516Y-8555030D02*
X9549564Y-8564554D01*
X9549564Y-8564554D02*
X9559087Y-8574078D01*
X9559087Y-8574078D02*
X9568611Y-8593126D01*
X9568611Y-8593126D02*
X9568611Y-8650269D01*
X9568611Y-8650269D02*
X9559087Y-8669316D01*
X9559087Y-8669316D02*
X9549564Y-8678840D01*
X9549564Y-8678840D02*
X9530516Y-8688364D01*
X9530516Y-8688364D02*
X9492421Y-8688364D01*
X9492421Y-8688364D02*
X9473373Y-8678840D01*
X9654325Y-8669316D02*
X9663849Y-8678840D01*
X9663849Y-8678840D02*
X9654325Y-8688364D01*
X9654325Y-8688364D02*
X9644802Y-8678840D01*
X9644802Y-8678840D02*
X9654325Y-8669316D01*
X9654325Y-8669316D02*
X9654325Y-8688364D01*
X9654325Y-8564554D02*
X9663849Y-8574078D01*
X9663849Y-8574078D02*
X9654325Y-8583602D01*
X9654325Y-8583602D02*
X9644802Y-8574078D01*
X9644802Y-8574078D02*
X9654325Y-8564554D01*
X9654325Y-8564554D02*
X9654325Y-8583602D01*
M02*
