G04 #@! TF.GenerationSoftware,KiCad,Pcbnew,9.0.9-9.0.9~ubuntu22.04.1*
G04 #@! TF.CreationDate,2026-07-23T20:04:54+07:00*
G04 #@! TF.ProjectId,custom_phonecase,63757374-6f6d-45f7-9068-6f6e65636173,rev?*
G04 #@! TF.SameCoordinates,Original*
G04 #@! TF.FileFunction,Legend,Bot*
G04 #@! TF.FilePolarity,Positive*
%FSLAX46Y46*%
G04 Gerber Fmt 4.6, Leading zero omitted, Abs format (unit mm)*
G04 Created by KiCad (PCBNEW 9.0.9-9.0.9~ubuntu22.04.1) date 2026-07-23 20:04:54*
%MOMM*%
%LPD*%
G01*
G04 APERTURE LIST*
%ADD10C,0.100000*%
%ADD11C,0.150000*%
%ADD12C,1.524000*%
%ADD13C,1.800000*%
%ADD14C,2.100000*%
%ADD15R,1.700000X1.700000*%
%ADD16O,1.700000X1.700000*%
G04 APERTURE END LIST*
D10*
X112377295Y-58098980D02*
X112377295Y-57289457D01*
X112377295Y-57289457D02*
X112424914Y-57194219D01*
X112424914Y-57194219D02*
X112472533Y-57146600D01*
X112472533Y-57146600D02*
X112567771Y-57098980D01*
X112567771Y-57098980D02*
X112758247Y-57098980D01*
X112758247Y-57098980D02*
X112853485Y-57146600D01*
X112853485Y-57146600D02*
X112901104Y-57194219D01*
X112901104Y-57194219D02*
X112948723Y-57289457D01*
X112948723Y-57289457D02*
X112948723Y-58098980D01*
X113377295Y-58003742D02*
X113424914Y-58051361D01*
X113424914Y-58051361D02*
X113520152Y-58098980D01*
X113520152Y-58098980D02*
X113758247Y-58098980D01*
X113758247Y-58098980D02*
X113853485Y-58051361D01*
X113853485Y-58051361D02*
X113901104Y-58003742D01*
X113901104Y-58003742D02*
X113948723Y-57908504D01*
X113948723Y-57908504D02*
X113948723Y-57813266D01*
X113948723Y-57813266D02*
X113901104Y-57670409D01*
X113901104Y-57670409D02*
X113329676Y-57098980D01*
X113329676Y-57098980D02*
X113948723Y-57098980D01*
D11*
X114322474Y-55795104D02*
X114589141Y-54995104D01*
X114589141Y-54995104D02*
X114855807Y-55795104D01*
X115579617Y-55071295D02*
X115541521Y-55033200D01*
X115541521Y-55033200D02*
X115427236Y-54995104D01*
X115427236Y-54995104D02*
X115351045Y-54995104D01*
X115351045Y-54995104D02*
X115236759Y-55033200D01*
X115236759Y-55033200D02*
X115160569Y-55109390D01*
X115160569Y-55109390D02*
X115122474Y-55185580D01*
X115122474Y-55185580D02*
X115084378Y-55337961D01*
X115084378Y-55337961D02*
X115084378Y-55452247D01*
X115084378Y-55452247D02*
X115122474Y-55604628D01*
X115122474Y-55604628D02*
X115160569Y-55680819D01*
X115160569Y-55680819D02*
X115236759Y-55757009D01*
X115236759Y-55757009D02*
X115351045Y-55795104D01*
X115351045Y-55795104D02*
X115427236Y-55795104D01*
X115427236Y-55795104D02*
X115541521Y-55757009D01*
X115541521Y-55757009D02*
X115579617Y-55718914D01*
X116379617Y-55071295D02*
X116341521Y-55033200D01*
X116341521Y-55033200D02*
X116227236Y-54995104D01*
X116227236Y-54995104D02*
X116151045Y-54995104D01*
X116151045Y-54995104D02*
X116036759Y-55033200D01*
X116036759Y-55033200D02*
X115960569Y-55109390D01*
X115960569Y-55109390D02*
X115922474Y-55185580D01*
X115922474Y-55185580D02*
X115884378Y-55337961D01*
X115884378Y-55337961D02*
X115884378Y-55452247D01*
X115884378Y-55452247D02*
X115922474Y-55604628D01*
X115922474Y-55604628D02*
X115960569Y-55680819D01*
X115960569Y-55680819D02*
X116036759Y-55757009D01*
X116036759Y-55757009D02*
X116151045Y-55795104D01*
X116151045Y-55795104D02*
X116227236Y-55795104D01*
X116227236Y-55795104D02*
X116341521Y-55757009D01*
X116341521Y-55757009D02*
X116379617Y-55718914D01*
X117497407Y-55731609D02*
X117421217Y-55769704D01*
X117421217Y-55769704D02*
X117306931Y-55769704D01*
X117306931Y-55769704D02*
X117192645Y-55731609D01*
X117192645Y-55731609D02*
X117116455Y-55655419D01*
X117116455Y-55655419D02*
X117078360Y-55579228D01*
X117078360Y-55579228D02*
X117040264Y-55426847D01*
X117040264Y-55426847D02*
X117040264Y-55312561D01*
X117040264Y-55312561D02*
X117078360Y-55160180D01*
X117078360Y-55160180D02*
X117116455Y-55083990D01*
X117116455Y-55083990D02*
X117192645Y-55007800D01*
X117192645Y-55007800D02*
X117306931Y-54969704D01*
X117306931Y-54969704D02*
X117383122Y-54969704D01*
X117383122Y-54969704D02*
X117497407Y-55007800D01*
X117497407Y-55007800D02*
X117535503Y-55045895D01*
X117535503Y-55045895D02*
X117535503Y-55312561D01*
X117535503Y-55312561D02*
X117383122Y-55312561D01*
X117878360Y-54969704D02*
X117878360Y-55769704D01*
X117878360Y-55769704D02*
X118335503Y-54969704D01*
X118335503Y-54969704D02*
X118335503Y-55769704D01*
X118716455Y-54969704D02*
X118716455Y-55769704D01*
X118716455Y-55769704D02*
X118906931Y-55769704D01*
X118906931Y-55769704D02*
X119021217Y-55731609D01*
X119021217Y-55731609D02*
X119097407Y-55655419D01*
X119097407Y-55655419D02*
X119135502Y-55579228D01*
X119135502Y-55579228D02*
X119173598Y-55426847D01*
X119173598Y-55426847D02*
X119173598Y-55312561D01*
X119173598Y-55312561D02*
X119135502Y-55160180D01*
X119135502Y-55160180D02*
X119097407Y-55083990D01*
X119097407Y-55083990D02*
X119021217Y-55007800D01*
X119021217Y-55007800D02*
X118906931Y-54969704D01*
X118906931Y-54969704D02*
X118716455Y-54969704D01*
X119732664Y-54982400D02*
X119846950Y-54944304D01*
X119846950Y-54944304D02*
X120037426Y-54944304D01*
X120037426Y-54944304D02*
X120113617Y-54982400D01*
X120113617Y-54982400D02*
X120151712Y-55020495D01*
X120151712Y-55020495D02*
X120189807Y-55096685D01*
X120189807Y-55096685D02*
X120189807Y-55172876D01*
X120189807Y-55172876D02*
X120151712Y-55249066D01*
X120151712Y-55249066D02*
X120113617Y-55287161D01*
X120113617Y-55287161D02*
X120037426Y-55325257D01*
X120037426Y-55325257D02*
X119885045Y-55363352D01*
X119885045Y-55363352D02*
X119808855Y-55401447D01*
X119808855Y-55401447D02*
X119770760Y-55439542D01*
X119770760Y-55439542D02*
X119732664Y-55515733D01*
X119732664Y-55515733D02*
X119732664Y-55591923D01*
X119732664Y-55591923D02*
X119770760Y-55668114D01*
X119770760Y-55668114D02*
X119808855Y-55706209D01*
X119808855Y-55706209D02*
X119885045Y-55744304D01*
X119885045Y-55744304D02*
X120075522Y-55744304D01*
X120075522Y-55744304D02*
X120189807Y-55706209D01*
X120989808Y-55020495D02*
X120951712Y-54982400D01*
X120951712Y-54982400D02*
X120837427Y-54944304D01*
X120837427Y-54944304D02*
X120761236Y-54944304D01*
X120761236Y-54944304D02*
X120646950Y-54982400D01*
X120646950Y-54982400D02*
X120570760Y-55058590D01*
X120570760Y-55058590D02*
X120532665Y-55134780D01*
X120532665Y-55134780D02*
X120494569Y-55287161D01*
X120494569Y-55287161D02*
X120494569Y-55401447D01*
X120494569Y-55401447D02*
X120532665Y-55553828D01*
X120532665Y-55553828D02*
X120570760Y-55630019D01*
X120570760Y-55630019D02*
X120646950Y-55706209D01*
X120646950Y-55706209D02*
X120761236Y-55744304D01*
X120761236Y-55744304D02*
X120837427Y-55744304D01*
X120837427Y-55744304D02*
X120951712Y-55706209D01*
X120951712Y-55706209D02*
X120989808Y-55668114D01*
X121332665Y-54944304D02*
X121332665Y-55744304D01*
X121789808Y-54944304D02*
X121446950Y-55401447D01*
X121789808Y-55744304D02*
X121332665Y-55287161D01*
X122272664Y-55007800D02*
X122386950Y-54969704D01*
X122386950Y-54969704D02*
X122577426Y-54969704D01*
X122577426Y-54969704D02*
X122653617Y-55007800D01*
X122653617Y-55007800D02*
X122691712Y-55045895D01*
X122691712Y-55045895D02*
X122729807Y-55122085D01*
X122729807Y-55122085D02*
X122729807Y-55198276D01*
X122729807Y-55198276D02*
X122691712Y-55274466D01*
X122691712Y-55274466D02*
X122653617Y-55312561D01*
X122653617Y-55312561D02*
X122577426Y-55350657D01*
X122577426Y-55350657D02*
X122425045Y-55388752D01*
X122425045Y-55388752D02*
X122348855Y-55426847D01*
X122348855Y-55426847D02*
X122310760Y-55464942D01*
X122310760Y-55464942D02*
X122272664Y-55541133D01*
X122272664Y-55541133D02*
X122272664Y-55617323D01*
X122272664Y-55617323D02*
X122310760Y-55693514D01*
X122310760Y-55693514D02*
X122348855Y-55731609D01*
X122348855Y-55731609D02*
X122425045Y-55769704D01*
X122425045Y-55769704D02*
X122615522Y-55769704D01*
X122615522Y-55769704D02*
X122729807Y-55731609D01*
X123072665Y-54969704D02*
X123072665Y-55769704D01*
X123072665Y-55769704D02*
X123263141Y-55769704D01*
X123263141Y-55769704D02*
X123377427Y-55731609D01*
X123377427Y-55731609D02*
X123453617Y-55655419D01*
X123453617Y-55655419D02*
X123491712Y-55579228D01*
X123491712Y-55579228D02*
X123529808Y-55426847D01*
X123529808Y-55426847D02*
X123529808Y-55312561D01*
X123529808Y-55312561D02*
X123491712Y-55160180D01*
X123491712Y-55160180D02*
X123453617Y-55083990D01*
X123453617Y-55083990D02*
X123377427Y-55007800D01*
X123377427Y-55007800D02*
X123263141Y-54969704D01*
X123263141Y-54969704D02*
X123072665Y-54969704D01*
X123834569Y-55198276D02*
X124215522Y-55198276D01*
X123758379Y-54969704D02*
X124025046Y-55769704D01*
X124025046Y-55769704D02*
X124291712Y-54969704D01*
%LPC*%
D12*
X115519200Y-57581800D03*
X118059200Y-57581800D03*
X120599200Y-57581800D03*
X123139200Y-57556400D03*
D13*
X110744000Y-50927000D03*
X110744000Y-53467000D03*
X110744000Y-56007000D03*
D14*
X96791200Y-70090800D03*
X96791200Y-81090800D03*
X96791200Y-73090800D03*
X96791200Y-78090800D03*
D15*
X93371200Y-34417000D03*
D16*
X90831200Y-34417000D03*
X88291200Y-34417000D03*
%LPD*%
M02*
