G04 #@! TF.GenerationSoftware,KiCad,Pcbnew,9.0.9-9.0.9~ubuntu22.04.1*
G04 #@! TF.CreationDate,2026-07-23T20:04:52+07:00*
G04 #@! TF.ProjectId,custom_phonecase,63757374-6f6d-45f7-9068-6f6e65636173,rev?*
G04 #@! TF.SameCoordinates,Original*
G04 #@! TF.FileFunction,Legend,Top*
G04 #@! TF.FilePolarity,Positive*
%FSLAX46Y46*%
G04 Gerber Fmt 4.6, Leading zero omitted, Abs format (unit mm)*
G04 Created by KiCad (PCBNEW 9.0.9-9.0.9~ubuntu22.04.1) date 2026-07-23 20:04:52*
%MOMM*%
%LPD*%
G01*
G04 APERTURE LIST*
G04 Aperture macros list*
%AMRoundRect*
0 Rectangle with rounded corners*
0 $1 Rounding radius*
0 $2 $3 $4 $5 $6 $7 $8 $9 X,Y pos of 4 corners*
0 Add a 4 corners polygon primitive as box body*
4,1,4,$2,$3,$4,$5,$6,$7,$8,$9,$2,$3,0*
0 Add four circle primitives for the rounded corners*
1,1,$1+$1,$2,$3*
1,1,$1+$1,$4,$5*
1,1,$1+$1,$6,$7*
1,1,$1+$1,$8,$9*
0 Add four rect primitives between the rounded corners*
20,1,$1+$1,$2,$3,$4,$5,0*
20,1,$1+$1,$4,$5,$6,$7,0*
20,1,$1+$1,$6,$7,$8,$9,0*
20,1,$1+$1,$8,$9,$2,$3,0*%
G04 Aperture macros list end*
%ADD10C,0.150000*%
%ADD11C,0.100000*%
%ADD12C,0.120000*%
%ADD13C,0.127000*%
%ADD14RoundRect,0.250000X0.475000X-0.337500X0.475000X0.337500X-0.475000X0.337500X-0.475000X-0.337500X0*%
%ADD15RoundRect,0.237500X0.250000X0.237500X-0.250000X0.237500X-0.250000X-0.237500X0.250000X-0.237500X0*%
%ADD16R,2.000000X1.500000*%
%ADD17RoundRect,0.237500X0.237500X-0.250000X0.237500X0.250000X-0.237500X0.250000X-0.237500X-0.250000X0*%
%ADD18RoundRect,0.237500X-0.300000X-0.237500X0.300000X-0.237500X0.300000X0.237500X-0.300000X0.237500X0*%
%ADD19RoundRect,0.237500X-0.237500X0.250000X-0.237500X-0.250000X0.237500X-0.250000X0.237500X0.250000X0*%
%ADD20C,1.524000*%
%ADD21C,1.800000*%
%ADD22RoundRect,0.237500X0.300000X0.237500X-0.300000X0.237500X-0.300000X-0.237500X0.300000X-0.237500X0*%
%ADD23C,2.100000*%
%ADD24R,1.700000X1.700000*%
%ADD25O,1.700000X1.700000*%
%ADD26RoundRect,0.237500X-0.237500X0.300000X-0.237500X-0.300000X0.237500X-0.300000X0.237500X0.300000X0*%
%ADD27RoundRect,0.102000X-1.512500X-0.762000X1.512500X-0.762000X1.512500X0.762000X-1.512500X0.762000X0*%
G04 APERTURE END LIST*
D10*
X102322333Y-51830980D02*
X102274714Y-51878600D01*
X102274714Y-51878600D02*
X102131857Y-51926219D01*
X102131857Y-51926219D02*
X102036619Y-51926219D01*
X102036619Y-51926219D02*
X101893762Y-51878600D01*
X101893762Y-51878600D02*
X101798524Y-51783361D01*
X101798524Y-51783361D02*
X101750905Y-51688123D01*
X101750905Y-51688123D02*
X101703286Y-51497647D01*
X101703286Y-51497647D02*
X101703286Y-51354790D01*
X101703286Y-51354790D02*
X101750905Y-51164314D01*
X101750905Y-51164314D02*
X101798524Y-51069076D01*
X101798524Y-51069076D02*
X101893762Y-50973838D01*
X101893762Y-50973838D02*
X102036619Y-50926219D01*
X102036619Y-50926219D02*
X102131857Y-50926219D01*
X102131857Y-50926219D02*
X102274714Y-50973838D01*
X102274714Y-50973838D02*
X102322333Y-51021457D01*
X103274714Y-51926219D02*
X102703286Y-51926219D01*
X102989000Y-51926219D02*
X102989000Y-50926219D01*
X102989000Y-50926219D02*
X102893762Y-51069076D01*
X102893762Y-51069076D02*
X102798524Y-51164314D01*
X102798524Y-51164314D02*
X102703286Y-51211933D01*
X105399533Y-62989619D02*
X105066200Y-62513428D01*
X104828105Y-62989619D02*
X104828105Y-61989619D01*
X104828105Y-61989619D02*
X105209057Y-61989619D01*
X105209057Y-61989619D02*
X105304295Y-62037238D01*
X105304295Y-62037238D02*
X105351914Y-62084857D01*
X105351914Y-62084857D02*
X105399533Y-62180095D01*
X105399533Y-62180095D02*
X105399533Y-62322952D01*
X105399533Y-62322952D02*
X105351914Y-62418190D01*
X105351914Y-62418190D02*
X105304295Y-62465809D01*
X105304295Y-62465809D02*
X105209057Y-62513428D01*
X105209057Y-62513428D02*
X104828105Y-62513428D01*
X105732867Y-61989619D02*
X106351914Y-61989619D01*
X106351914Y-61989619D02*
X106018581Y-62370571D01*
X106018581Y-62370571D02*
X106161438Y-62370571D01*
X106161438Y-62370571D02*
X106256676Y-62418190D01*
X106256676Y-62418190D02*
X106304295Y-62465809D01*
X106304295Y-62465809D02*
X106351914Y-62561047D01*
X106351914Y-62561047D02*
X106351914Y-62799142D01*
X106351914Y-62799142D02*
X106304295Y-62894380D01*
X106304295Y-62894380D02*
X106256676Y-62942000D01*
X106256676Y-62942000D02*
X106161438Y-62989619D01*
X106161438Y-62989619D02*
X105875724Y-62989619D01*
X105875724Y-62989619D02*
X105780486Y-62942000D01*
X105780486Y-62942000D02*
X105732867Y-62894380D01*
D11*
X101505485Y-72024409D02*
X101648342Y-72072028D01*
X101648342Y-72072028D02*
X101695961Y-72119647D01*
X101695961Y-72119647D02*
X101743580Y-72214885D01*
X101743580Y-72214885D02*
X101743580Y-72357742D01*
X101743580Y-72357742D02*
X101695961Y-72452980D01*
X101695961Y-72452980D02*
X101648342Y-72500600D01*
X101648342Y-72500600D02*
X101553104Y-72548219D01*
X101553104Y-72548219D02*
X101172152Y-72548219D01*
X101172152Y-72548219D02*
X101172152Y-71548219D01*
X101172152Y-71548219D02*
X101505485Y-71548219D01*
X101505485Y-71548219D02*
X101600723Y-71595838D01*
X101600723Y-71595838D02*
X101648342Y-71643457D01*
X101648342Y-71643457D02*
X101695961Y-71738695D01*
X101695961Y-71738695D02*
X101695961Y-71833933D01*
X101695961Y-71833933D02*
X101648342Y-71929171D01*
X101648342Y-71929171D02*
X101600723Y-71976790D01*
X101600723Y-71976790D02*
X101505485Y-72024409D01*
X101505485Y-72024409D02*
X101172152Y-72024409D01*
X102029295Y-71548219D02*
X102600723Y-71548219D01*
X102315009Y-72548219D02*
X102315009Y-71548219D01*
X103457866Y-72548219D02*
X102886438Y-72548219D01*
X103172152Y-72548219D02*
X103172152Y-71548219D01*
X103172152Y-71548219D02*
X103076914Y-71691076D01*
X103076914Y-71691076D02*
X102981676Y-71786314D01*
X102981676Y-71786314D02*
X102886438Y-71833933D01*
D10*
X122976819Y-62496366D02*
X122500628Y-62829699D01*
X122976819Y-63067794D02*
X121976819Y-63067794D01*
X121976819Y-63067794D02*
X121976819Y-62686842D01*
X121976819Y-62686842D02*
X122024438Y-62591604D01*
X122024438Y-62591604D02*
X122072057Y-62543985D01*
X122072057Y-62543985D02*
X122167295Y-62496366D01*
X122167295Y-62496366D02*
X122310152Y-62496366D01*
X122310152Y-62496366D02*
X122405390Y-62543985D01*
X122405390Y-62543985D02*
X122453009Y-62591604D01*
X122453009Y-62591604D02*
X122500628Y-62686842D01*
X122500628Y-62686842D02*
X122500628Y-63067794D01*
X122072057Y-62115413D02*
X122024438Y-62067794D01*
X122024438Y-62067794D02*
X121976819Y-61972556D01*
X121976819Y-61972556D02*
X121976819Y-61734461D01*
X121976819Y-61734461D02*
X122024438Y-61639223D01*
X122024438Y-61639223D02*
X122072057Y-61591604D01*
X122072057Y-61591604D02*
X122167295Y-61543985D01*
X122167295Y-61543985D02*
X122262533Y-61543985D01*
X122262533Y-61543985D02*
X122405390Y-61591604D01*
X122405390Y-61591604D02*
X122976819Y-62163032D01*
X122976819Y-62163032D02*
X122976819Y-61543985D01*
X115799533Y-61020380D02*
X115751914Y-61068000D01*
X115751914Y-61068000D02*
X115609057Y-61115619D01*
X115609057Y-61115619D02*
X115513819Y-61115619D01*
X115513819Y-61115619D02*
X115370962Y-61068000D01*
X115370962Y-61068000D02*
X115275724Y-60972761D01*
X115275724Y-60972761D02*
X115228105Y-60877523D01*
X115228105Y-60877523D02*
X115180486Y-60687047D01*
X115180486Y-60687047D02*
X115180486Y-60544190D01*
X115180486Y-60544190D02*
X115228105Y-60353714D01*
X115228105Y-60353714D02*
X115275724Y-60258476D01*
X115275724Y-60258476D02*
X115370962Y-60163238D01*
X115370962Y-60163238D02*
X115513819Y-60115619D01*
X115513819Y-60115619D02*
X115609057Y-60115619D01*
X115609057Y-60115619D02*
X115751914Y-60163238D01*
X115751914Y-60163238D02*
X115799533Y-60210857D01*
X116132867Y-60115619D02*
X116751914Y-60115619D01*
X116751914Y-60115619D02*
X116418581Y-60496571D01*
X116418581Y-60496571D02*
X116561438Y-60496571D01*
X116561438Y-60496571D02*
X116656676Y-60544190D01*
X116656676Y-60544190D02*
X116704295Y-60591809D01*
X116704295Y-60591809D02*
X116751914Y-60687047D01*
X116751914Y-60687047D02*
X116751914Y-60925142D01*
X116751914Y-60925142D02*
X116704295Y-61020380D01*
X116704295Y-61020380D02*
X116656676Y-61068000D01*
X116656676Y-61068000D02*
X116561438Y-61115619D01*
X116561438Y-61115619D02*
X116275724Y-61115619D01*
X116275724Y-61115619D02*
X116180486Y-61068000D01*
X116180486Y-61068000D02*
X116132867Y-61020380D01*
X120012619Y-62447466D02*
X119536428Y-62780799D01*
X120012619Y-63018894D02*
X119012619Y-63018894D01*
X119012619Y-63018894D02*
X119012619Y-62637942D01*
X119012619Y-62637942D02*
X119060238Y-62542704D01*
X119060238Y-62542704D02*
X119107857Y-62495085D01*
X119107857Y-62495085D02*
X119203095Y-62447466D01*
X119203095Y-62447466D02*
X119345952Y-62447466D01*
X119345952Y-62447466D02*
X119441190Y-62495085D01*
X119441190Y-62495085D02*
X119488809Y-62542704D01*
X119488809Y-62542704D02*
X119536428Y-62637942D01*
X119536428Y-62637942D02*
X119536428Y-63018894D01*
X120012619Y-61495085D02*
X120012619Y-62066513D01*
X120012619Y-61780799D02*
X119012619Y-61780799D01*
X119012619Y-61780799D02*
X119155476Y-61876037D01*
X119155476Y-61876037D02*
X119250714Y-61971275D01*
X119250714Y-61971275D02*
X119298333Y-62066513D01*
D11*
X108012219Y-56314904D02*
X108821742Y-56314904D01*
X108821742Y-56314904D02*
X108916980Y-56267285D01*
X108916980Y-56267285D02*
X108964600Y-56219666D01*
X108964600Y-56219666D02*
X109012219Y-56124428D01*
X109012219Y-56124428D02*
X109012219Y-55933952D01*
X109012219Y-55933952D02*
X108964600Y-55838714D01*
X108964600Y-55838714D02*
X108916980Y-55791095D01*
X108916980Y-55791095D02*
X108821742Y-55743476D01*
X108821742Y-55743476D02*
X108012219Y-55743476D01*
X108012219Y-55362523D02*
X108012219Y-54743476D01*
X108012219Y-54743476D02*
X108393171Y-55076809D01*
X108393171Y-55076809D02*
X108393171Y-54933952D01*
X108393171Y-54933952D02*
X108440790Y-54838714D01*
X108440790Y-54838714D02*
X108488409Y-54791095D01*
X108488409Y-54791095D02*
X108583647Y-54743476D01*
X108583647Y-54743476D02*
X108821742Y-54743476D01*
X108821742Y-54743476D02*
X108916980Y-54791095D01*
X108916980Y-54791095D02*
X108964600Y-54838714D01*
X108964600Y-54838714D02*
X109012219Y-54933952D01*
X109012219Y-54933952D02*
X109012219Y-55219666D01*
X109012219Y-55219666D02*
X108964600Y-55314904D01*
X108964600Y-55314904D02*
X108916980Y-55362523D01*
D10*
X112233322Y-50482619D02*
X112566655Y-51482619D01*
X112566655Y-51482619D02*
X112899988Y-50482619D01*
X113804750Y-51387380D02*
X113757131Y-51435000D01*
X113757131Y-51435000D02*
X113614274Y-51482619D01*
X113614274Y-51482619D02*
X113519036Y-51482619D01*
X113519036Y-51482619D02*
X113376179Y-51435000D01*
X113376179Y-51435000D02*
X113280941Y-51339761D01*
X113280941Y-51339761D02*
X113233322Y-51244523D01*
X113233322Y-51244523D02*
X113185703Y-51054047D01*
X113185703Y-51054047D02*
X113185703Y-50911190D01*
X113185703Y-50911190D02*
X113233322Y-50720714D01*
X113233322Y-50720714D02*
X113280941Y-50625476D01*
X113280941Y-50625476D02*
X113376179Y-50530238D01*
X113376179Y-50530238D02*
X113519036Y-50482619D01*
X113519036Y-50482619D02*
X113614274Y-50482619D01*
X113614274Y-50482619D02*
X113757131Y-50530238D01*
X113757131Y-50530238D02*
X113804750Y-50577857D01*
X114804750Y-51387380D02*
X114757131Y-51435000D01*
X114757131Y-51435000D02*
X114614274Y-51482619D01*
X114614274Y-51482619D02*
X114519036Y-51482619D01*
X114519036Y-51482619D02*
X114376179Y-51435000D01*
X114376179Y-51435000D02*
X114280941Y-51339761D01*
X114280941Y-51339761D02*
X114233322Y-51244523D01*
X114233322Y-51244523D02*
X114185703Y-51054047D01*
X114185703Y-51054047D02*
X114185703Y-50911190D01*
X114185703Y-50911190D02*
X114233322Y-50720714D01*
X114233322Y-50720714D02*
X114280941Y-50625476D01*
X114280941Y-50625476D02*
X114376179Y-50530238D01*
X114376179Y-50530238D02*
X114519036Y-50482619D01*
X114519036Y-50482619D02*
X114614274Y-50482619D01*
X114614274Y-50482619D02*
X114757131Y-50530238D01*
X114757131Y-50530238D02*
X114804750Y-50577857D01*
X112325379Y-53971819D02*
X112325379Y-52971819D01*
X113515854Y-52924200D02*
X112658712Y-54209914D01*
X114039664Y-52971819D02*
X114230140Y-52971819D01*
X114230140Y-52971819D02*
X114325378Y-53019438D01*
X114325378Y-53019438D02*
X114420616Y-53114676D01*
X114420616Y-53114676D02*
X114468235Y-53305152D01*
X114468235Y-53305152D02*
X114468235Y-53638485D01*
X114468235Y-53638485D02*
X114420616Y-53828961D01*
X114420616Y-53828961D02*
X114325378Y-53924200D01*
X114325378Y-53924200D02*
X114230140Y-53971819D01*
X114230140Y-53971819D02*
X114039664Y-53971819D01*
X114039664Y-53971819D02*
X113944426Y-53924200D01*
X113944426Y-53924200D02*
X113849188Y-53828961D01*
X113849188Y-53828961D02*
X113801569Y-53638485D01*
X113801569Y-53638485D02*
X113801569Y-53305152D01*
X113801569Y-53305152D02*
X113849188Y-53114676D01*
X113849188Y-53114676D02*
X113944426Y-53019438D01*
X113944426Y-53019438D02*
X114039664Y-52971819D01*
X112798388Y-55635638D02*
X112703150Y-55588019D01*
X112703150Y-55588019D02*
X112560293Y-55588019D01*
X112560293Y-55588019D02*
X112417436Y-55635638D01*
X112417436Y-55635638D02*
X112322198Y-55730876D01*
X112322198Y-55730876D02*
X112274579Y-55826114D01*
X112274579Y-55826114D02*
X112226960Y-56016590D01*
X112226960Y-56016590D02*
X112226960Y-56159447D01*
X112226960Y-56159447D02*
X112274579Y-56349923D01*
X112274579Y-56349923D02*
X112322198Y-56445161D01*
X112322198Y-56445161D02*
X112417436Y-56540400D01*
X112417436Y-56540400D02*
X112560293Y-56588019D01*
X112560293Y-56588019D02*
X112655531Y-56588019D01*
X112655531Y-56588019D02*
X112798388Y-56540400D01*
X112798388Y-56540400D02*
X112846007Y-56492780D01*
X112846007Y-56492780D02*
X112846007Y-56159447D01*
X112846007Y-56159447D02*
X112655531Y-56159447D01*
X113274579Y-56588019D02*
X113274579Y-55588019D01*
X113274579Y-55588019D02*
X113846007Y-56588019D01*
X113846007Y-56588019D02*
X113846007Y-55588019D01*
X114322198Y-56588019D02*
X114322198Y-55588019D01*
X114322198Y-55588019D02*
X114560293Y-55588019D01*
X114560293Y-55588019D02*
X114703150Y-55635638D01*
X114703150Y-55635638D02*
X114798388Y-55730876D01*
X114798388Y-55730876D02*
X114846007Y-55826114D01*
X114846007Y-55826114D02*
X114893626Y-56016590D01*
X114893626Y-56016590D02*
X114893626Y-56159447D01*
X114893626Y-56159447D02*
X114846007Y-56349923D01*
X114846007Y-56349923D02*
X114798388Y-56445161D01*
X114798388Y-56445161D02*
X114703150Y-56540400D01*
X114703150Y-56540400D02*
X114560293Y-56588019D01*
X114560293Y-56588019D02*
X114322198Y-56588019D01*
X105574633Y-60455980D02*
X105527014Y-60503600D01*
X105527014Y-60503600D02*
X105384157Y-60551219D01*
X105384157Y-60551219D02*
X105288919Y-60551219D01*
X105288919Y-60551219D02*
X105146062Y-60503600D01*
X105146062Y-60503600D02*
X105050824Y-60408361D01*
X105050824Y-60408361D02*
X105003205Y-60313123D01*
X105003205Y-60313123D02*
X104955586Y-60122647D01*
X104955586Y-60122647D02*
X104955586Y-59979790D01*
X104955586Y-59979790D02*
X105003205Y-59789314D01*
X105003205Y-59789314D02*
X105050824Y-59694076D01*
X105050824Y-59694076D02*
X105146062Y-59598838D01*
X105146062Y-59598838D02*
X105288919Y-59551219D01*
X105288919Y-59551219D02*
X105384157Y-59551219D01*
X105384157Y-59551219D02*
X105527014Y-59598838D01*
X105527014Y-59598838D02*
X105574633Y-59646457D01*
X106431776Y-59884552D02*
X106431776Y-60551219D01*
X106193681Y-59503600D02*
X105955586Y-60217885D01*
X105955586Y-60217885D02*
X106574633Y-60217885D01*
D11*
X99248619Y-82352704D02*
X100058142Y-82352704D01*
X100058142Y-82352704D02*
X100153380Y-82305085D01*
X100153380Y-82305085D02*
X100201000Y-82257466D01*
X100201000Y-82257466D02*
X100248619Y-82162228D01*
X100248619Y-82162228D02*
X100248619Y-81971752D01*
X100248619Y-81971752D02*
X100201000Y-81876514D01*
X100201000Y-81876514D02*
X100153380Y-81828895D01*
X100153380Y-81828895D02*
X100058142Y-81781276D01*
X100058142Y-81781276D02*
X99248619Y-81781276D01*
X99581952Y-80876514D02*
X100248619Y-80876514D01*
X99201000Y-81114609D02*
X99915285Y-81352704D01*
X99915285Y-81352704D02*
X99915285Y-80733657D01*
D10*
X96238400Y-35750332D02*
X96286019Y-35607475D01*
X96286019Y-35607475D02*
X96286019Y-35369380D01*
X96286019Y-35369380D02*
X96238400Y-35274142D01*
X96238400Y-35274142D02*
X96190780Y-35226523D01*
X96190780Y-35226523D02*
X96095542Y-35178904D01*
X96095542Y-35178904D02*
X96000304Y-35178904D01*
X96000304Y-35178904D02*
X95905066Y-35226523D01*
X95905066Y-35226523D02*
X95857447Y-35274142D01*
X95857447Y-35274142D02*
X95809828Y-35369380D01*
X95809828Y-35369380D02*
X95762209Y-35559856D01*
X95762209Y-35559856D02*
X95714590Y-35655094D01*
X95714590Y-35655094D02*
X95666971Y-35702713D01*
X95666971Y-35702713D02*
X95571733Y-35750332D01*
X95571733Y-35750332D02*
X95476495Y-35750332D01*
X95476495Y-35750332D02*
X95381257Y-35702713D01*
X95381257Y-35702713D02*
X95333638Y-35655094D01*
X95333638Y-35655094D02*
X95286019Y-35559856D01*
X95286019Y-35559856D02*
X95286019Y-35321761D01*
X95286019Y-35321761D02*
X95333638Y-35178904D01*
X95286019Y-34845570D02*
X96286019Y-34607475D01*
X96286019Y-34607475D02*
X95571733Y-34416999D01*
X95571733Y-34416999D02*
X96286019Y-34226523D01*
X96286019Y-34226523D02*
X95286019Y-33988428D01*
X96286019Y-33083666D02*
X96286019Y-33655094D01*
X96286019Y-33369380D02*
X95286019Y-33369380D01*
X95286019Y-33369380D02*
X95428876Y-33464618D01*
X95428876Y-33464618D02*
X95524114Y-33559856D01*
X95524114Y-33559856D02*
X95571733Y-33655094D01*
X103815019Y-65620566D02*
X103338828Y-65953899D01*
X103815019Y-66191994D02*
X102815019Y-66191994D01*
X102815019Y-66191994D02*
X102815019Y-65811042D01*
X102815019Y-65811042D02*
X102862638Y-65715804D01*
X102862638Y-65715804D02*
X102910257Y-65668185D01*
X102910257Y-65668185D02*
X103005495Y-65620566D01*
X103005495Y-65620566D02*
X103148352Y-65620566D01*
X103148352Y-65620566D02*
X103243590Y-65668185D01*
X103243590Y-65668185D02*
X103291209Y-65715804D01*
X103291209Y-65715804D02*
X103338828Y-65811042D01*
X103338828Y-65811042D02*
X103338828Y-66191994D01*
X103148352Y-64763423D02*
X103815019Y-64763423D01*
X102767400Y-65001518D02*
X103481685Y-65239613D01*
X103481685Y-65239613D02*
X103481685Y-64620566D01*
X108926780Y-48781166D02*
X108974400Y-48828785D01*
X108974400Y-48828785D02*
X109022019Y-48971642D01*
X109022019Y-48971642D02*
X109022019Y-49066880D01*
X109022019Y-49066880D02*
X108974400Y-49209737D01*
X108974400Y-49209737D02*
X108879161Y-49304975D01*
X108879161Y-49304975D02*
X108783923Y-49352594D01*
X108783923Y-49352594D02*
X108593447Y-49400213D01*
X108593447Y-49400213D02*
X108450590Y-49400213D01*
X108450590Y-49400213D02*
X108260114Y-49352594D01*
X108260114Y-49352594D02*
X108164876Y-49304975D01*
X108164876Y-49304975D02*
X108069638Y-49209737D01*
X108069638Y-49209737D02*
X108022019Y-49066880D01*
X108022019Y-49066880D02*
X108022019Y-48971642D01*
X108022019Y-48971642D02*
X108069638Y-48828785D01*
X108069638Y-48828785D02*
X108117257Y-48781166D01*
X108117257Y-48400213D02*
X108069638Y-48352594D01*
X108069638Y-48352594D02*
X108022019Y-48257356D01*
X108022019Y-48257356D02*
X108022019Y-48019261D01*
X108022019Y-48019261D02*
X108069638Y-47924023D01*
X108069638Y-47924023D02*
X108117257Y-47876404D01*
X108117257Y-47876404D02*
X108212495Y-47828785D01*
X108212495Y-47828785D02*
X108307733Y-47828785D01*
X108307733Y-47828785D02*
X108450590Y-47876404D01*
X108450590Y-47876404D02*
X109022019Y-48447832D01*
X109022019Y-48447832D02*
X109022019Y-47828785D01*
X81559295Y-40045619D02*
X81559295Y-40855142D01*
X81559295Y-40855142D02*
X81606914Y-40950380D01*
X81606914Y-40950380D02*
X81654533Y-40998000D01*
X81654533Y-40998000D02*
X81749771Y-41045619D01*
X81749771Y-41045619D02*
X81940247Y-41045619D01*
X81940247Y-41045619D02*
X82035485Y-40998000D01*
X82035485Y-40998000D02*
X82083104Y-40950380D01*
X82083104Y-40950380D02*
X82130723Y-40855142D01*
X82130723Y-40855142D02*
X82130723Y-40045619D01*
X83130723Y-41045619D02*
X82559295Y-41045619D01*
X82845009Y-41045619D02*
X82845009Y-40045619D01*
X82845009Y-40045619D02*
X82749771Y-40188476D01*
X82749771Y-40188476D02*
X82654533Y-40283714D01*
X82654533Y-40283714D02*
X82559295Y-40331333D01*
D12*
X103224000Y-48695152D02*
X103224000Y-48172648D01*
X101754000Y-48695152D02*
X101754000Y-48172648D01*
X103075824Y-62904900D02*
X102566376Y-62904900D01*
X103075824Y-61859900D02*
X102566376Y-61859900D01*
D11*
X101191200Y-77990800D02*
X103391200Y-77990800D01*
X103391200Y-72990800D01*
X101191200Y-72990800D01*
X101191200Y-77990800D01*
D12*
X124474500Y-62584424D02*
X124474500Y-62074976D01*
X123429500Y-62584424D02*
X123429500Y-62074976D01*
X115819933Y-62600800D02*
X116112467Y-62600800D01*
X115819933Y-61580800D02*
X116112467Y-61580800D01*
X120483100Y-62027976D02*
X120483100Y-62537424D01*
X121528100Y-62027976D02*
X121528100Y-62537424D01*
D11*
X109535200Y-59117800D02*
X124335200Y-59117800D01*
X124335200Y-47917800D01*
X109535200Y-47917800D01*
X109535200Y-59117800D01*
D12*
X102965467Y-59510200D02*
X102672933Y-59510200D01*
X102965467Y-60530200D02*
X102672933Y-60530200D01*
D11*
X80291200Y-82590800D02*
X98291200Y-82590800D01*
X98291200Y-68590800D01*
X80291200Y-68590800D01*
X80291200Y-82590800D01*
X79291200Y-79590800D02*
X80291200Y-79590800D01*
X80291200Y-71590800D01*
X79291200Y-71590800D01*
X79291200Y-79590800D01*
D12*
X86961200Y-33087000D02*
X86961200Y-35747000D01*
X92101200Y-33087000D02*
X86961200Y-33087000D01*
X93371200Y-33087000D02*
X94701200Y-33087000D01*
X92101200Y-35747000D02*
X86961200Y-35747000D01*
X94701200Y-33087000D02*
X94701200Y-34417000D01*
X92101200Y-33087000D02*
X92101200Y-35747000D01*
X102452700Y-65199176D02*
X102452700Y-65708624D01*
X101407700Y-65199176D02*
X101407700Y-65708624D01*
X107647200Y-48468233D02*
X107647200Y-48760767D01*
X106627200Y-48468233D02*
X106627200Y-48760767D01*
D13*
X99806200Y-65840800D02*
X99806200Y-63490800D01*
X99806200Y-65840800D02*
X81806200Y-65840800D01*
X99806200Y-43440800D02*
X99806200Y-43140800D01*
X99806200Y-43140800D02*
X95306200Y-43140800D01*
X95306200Y-41840800D02*
X95306200Y-43140800D01*
X95306200Y-41840800D02*
X86306200Y-41840800D01*
X86306200Y-43140800D02*
X81806200Y-43140800D01*
X86306200Y-41840800D02*
X86306200Y-43140800D01*
X81806200Y-65840800D02*
X81806200Y-63490800D01*
X81806200Y-43440800D02*
X81806200Y-43140800D01*
%LPC*%
D14*
X102489000Y-47396400D03*
X102489000Y-49471400D03*
D15*
X103733600Y-62382400D03*
X101908600Y-62382400D03*
D16*
X102291200Y-73890800D03*
X102291200Y-77090800D03*
D17*
X123952000Y-61417200D03*
X123952000Y-63242200D03*
D18*
X116828700Y-62090800D03*
X115103700Y-62090800D03*
D19*
X121005600Y-63195200D03*
X121005600Y-61370200D03*
D20*
X115519200Y-57581800D03*
X118059200Y-57581800D03*
X120599200Y-57581800D03*
X123139200Y-57556400D03*
D21*
X110744000Y-50927000D03*
X110744000Y-53467000D03*
X110744000Y-56007000D03*
D22*
X101956700Y-60020200D03*
X103681700Y-60020200D03*
D23*
X96791200Y-70090800D03*
X96791200Y-81090800D03*
X96791200Y-73090800D03*
X96791200Y-78090800D03*
D24*
X93371200Y-34417000D03*
D25*
X90831200Y-34417000D03*
X88291200Y-34417000D03*
D19*
X101930200Y-64541400D03*
X101930200Y-66366400D03*
D26*
X107137200Y-47752000D03*
X107137200Y-49477000D03*
D27*
X82821200Y-62370800D03*
X82821200Y-59830800D03*
X82821200Y-57290800D03*
X82821200Y-54750800D03*
X82821200Y-52210800D03*
X82821200Y-49670800D03*
X82821200Y-47130800D03*
X82821200Y-44590800D03*
X98791200Y-44590800D03*
X98791200Y-47130800D03*
X98791200Y-49670800D03*
X98791200Y-52210800D03*
X98791200Y-54750800D03*
X98791200Y-57290800D03*
X98791200Y-59830800D03*
X98791200Y-62370800D03*
%LPD*%
M02*
