G04 #@! TF.GenerationSoftware,KiCad,Pcbnew,9.0.9-9.0.9~ubuntu22.04.1*
G04 #@! TF.CreationDate,2026-07-23T20:04:43+07:00*
G04 #@! TF.ProjectId,custom_phonecase,63757374-6f6d-45f7-9068-6f6e65636173,rev?*
G04 #@! TF.SameCoordinates,Original*
G04 #@! TF.FileFunction,Copper,L1,Top*
G04 #@! TF.FilePolarity,Positive*
%FSLAX46Y46*%
G04 Gerber Fmt 4.6, Leading zero omitted, Abs format (unit mm)*
G04 Created by KiCad (PCBNEW 9.0.9-9.0.9~ubuntu22.04.1) date 2026-07-23 20:04:43*
%MOMM*%
%LPD*%
G01*
G04 APERTURE LIST*
G04 Aperture macros list*
%AMRoundRect*
0 Rectangle with rounded corners*
0 $1 Rounding radius*
0 $2 $3 $4 $5 $6 $7 $8 $9 X,Y pos of 4 corners*
0 Add a 4 corners polygon primitive as box body*
4,1,4,$2,$3,$4,$5,$6,$7,$8,$9,$2,$3,0*
0 Add four circle primitives for the rounded corners*
1,1,$1+$1,$2,$3*
1,1,$1+$1,$4,$5*
1,1,$1+$1,$6,$7*
1,1,$1+$1,$8,$9*
0 Add four rect primitives between the rounded corners*
20,1,$1+$1,$2,$3,$4,$5,0*
20,1,$1+$1,$4,$5,$6,$7,0*
20,1,$1+$1,$6,$7,$8,$9,0*
20,1,$1+$1,$8,$9,$2,$3,0*%
G04 Aperture macros list end*
G04 #@! TA.AperFunction,SMDPad,CuDef*
%ADD10RoundRect,0.250000X0.475000X-0.337500X0.475000X0.337500X-0.475000X0.337500X-0.475000X-0.337500X0*%
G04 #@! TD*
G04 #@! TA.AperFunction,SMDPad,CuDef*
%ADD11RoundRect,0.237500X0.250000X0.237500X-0.250000X0.237500X-0.250000X-0.237500X0.250000X-0.237500X0*%
G04 #@! TD*
G04 #@! TA.AperFunction,SMDPad,CuDef*
%ADD12R,2.000000X1.500000*%
G04 #@! TD*
G04 #@! TA.AperFunction,SMDPad,CuDef*
%ADD13RoundRect,0.237500X0.237500X-0.250000X0.237500X0.250000X-0.237500X0.250000X-0.237500X-0.250000X0*%
G04 #@! TD*
G04 #@! TA.AperFunction,SMDPad,CuDef*
%ADD14RoundRect,0.237500X-0.300000X-0.237500X0.300000X-0.237500X0.300000X0.237500X-0.300000X0.237500X0*%
G04 #@! TD*
G04 #@! TA.AperFunction,SMDPad,CuDef*
%ADD15RoundRect,0.237500X-0.237500X0.250000X-0.237500X-0.250000X0.237500X-0.250000X0.237500X0.250000X0*%
G04 #@! TD*
G04 #@! TA.AperFunction,ComponentPad*
%ADD16C,1.524000*%
G04 #@! TD*
G04 #@! TA.AperFunction,ComponentPad*
%ADD17C,1.800000*%
G04 #@! TD*
G04 #@! TA.AperFunction,SMDPad,CuDef*
%ADD18RoundRect,0.237500X0.300000X0.237500X-0.300000X0.237500X-0.300000X-0.237500X0.300000X-0.237500X0*%
G04 #@! TD*
G04 #@! TA.AperFunction,ComponentPad*
%ADD19C,2.100000*%
G04 #@! TD*
G04 #@! TA.AperFunction,ComponentPad*
%ADD20R,1.700000X1.700000*%
G04 #@! TD*
G04 #@! TA.AperFunction,ComponentPad*
%ADD21O,1.700000X1.700000*%
G04 #@! TD*
G04 #@! TA.AperFunction,SMDPad,CuDef*
%ADD22RoundRect,0.237500X-0.237500X0.300000X-0.237500X-0.300000X0.237500X-0.300000X0.237500X0.300000X0*%
G04 #@! TD*
G04 #@! TA.AperFunction,SMDPad,CuDef*
%ADD23R,3.025000X1.524000*%
G04 #@! TD*
G04 #@! TA.AperFunction,ViaPad*
%ADD24C,0.800000*%
G04 #@! TD*
G04 #@! TA.AperFunction,Conductor*
%ADD25C,0.500000*%
G04 #@! TD*
G04 #@! TA.AperFunction,Conductor*
%ADD26C,0.250000*%
G04 #@! TD*
G04 #@! TA.AperFunction,Conductor*
%ADD27C,1.000000*%
G04 #@! TD*
G04 APERTURE END LIST*
D10*
X102489000Y-47396400D03*
X102489000Y-49471400D03*
D11*
X103733600Y-62382400D03*
X101908600Y-62382400D03*
D12*
X102291200Y-73890800D03*
X102291200Y-77090800D03*
D13*
X123952000Y-61417200D03*
X123952000Y-63242200D03*
D14*
X116828700Y-62090800D03*
X115103700Y-62090800D03*
D15*
X121005600Y-63195200D03*
X121005600Y-61370200D03*
D16*
X115519200Y-57581800D03*
X118059200Y-57581800D03*
X120599200Y-57581800D03*
X123139200Y-57556400D03*
D17*
X110744000Y-50927000D03*
X110744000Y-53467000D03*
X110744000Y-56007000D03*
D18*
X101956700Y-60020200D03*
X103681700Y-60020200D03*
D19*
X96791200Y-70090800D03*
X96791200Y-81090800D03*
X96791200Y-73090800D03*
X96791200Y-78090800D03*
D20*
X93371200Y-34417000D03*
D21*
X90831200Y-34417000D03*
X88291200Y-34417000D03*
D15*
X101930200Y-64541400D03*
X101930200Y-66366400D03*
D22*
X107137200Y-47752000D03*
X107137200Y-49477000D03*
D23*
X82821200Y-62370800D03*
X82821200Y-59830800D03*
X82821200Y-57290800D03*
X82821200Y-54750800D03*
X82821200Y-52210800D03*
X82821200Y-49670800D03*
X82821200Y-47130800D03*
X82821200Y-44590800D03*
X98791200Y-44590800D03*
X98791200Y-47130800D03*
X98791200Y-49670800D03*
X98791200Y-52210800D03*
X98791200Y-54750800D03*
X98791200Y-57290800D03*
X98791200Y-59830800D03*
X98791200Y-62370800D03*
D24*
X88569800Y-52298600D03*
X88620600Y-54762400D03*
D25*
X102489000Y-49471400D02*
X102489000Y-49504600D01*
X102489000Y-49504600D02*
X102322800Y-49670800D01*
X102322800Y-49670800D02*
X100753700Y-49670800D01*
X100753700Y-49670800D02*
X98791200Y-49670800D01*
X107137200Y-49477000D02*
X107131600Y-49471400D01*
X107131600Y-49471400D02*
X102489000Y-49471400D01*
X98791200Y-49670800D02*
X98957400Y-49504600D01*
D26*
X88482000Y-52210800D02*
X88569800Y-52298600D01*
X82821200Y-52210800D02*
X88482000Y-52210800D01*
X88609000Y-54750800D02*
X88620600Y-54762400D01*
X82821200Y-54750800D02*
X88609000Y-54750800D01*
D25*
X107137200Y-49477000D02*
X109294000Y-49477000D01*
X109294000Y-49477000D02*
X110744000Y-50927000D01*
D26*
X121005600Y-63195200D02*
X116208100Y-63195200D01*
X116208100Y-63195200D02*
X115103700Y-62090800D01*
X123952000Y-63242200D02*
X121052600Y-63242200D01*
X121052600Y-63242200D02*
X121005600Y-63195200D01*
D25*
X115519200Y-57581800D02*
X115214400Y-57581800D01*
X112077500Y-54444900D02*
X112077500Y-54042689D01*
X115214400Y-57581800D02*
X112077500Y-54444900D01*
X112077500Y-52260500D02*
X110744000Y-50927000D01*
X112077500Y-54042689D02*
X112094000Y-54026189D01*
X112094000Y-54026189D02*
X112094000Y-52907811D01*
X112094000Y-52907811D02*
X112077500Y-52891311D01*
X112077500Y-52891311D02*
X112077500Y-52260500D01*
X115519200Y-57581800D02*
X114071400Y-59029600D01*
X114071400Y-59029600D02*
X114071400Y-61058500D01*
X114071400Y-61058500D02*
X115103700Y-62090800D01*
D26*
X123139200Y-57556400D02*
X123139200Y-60655200D01*
X123139200Y-60655200D02*
X123901200Y-61417200D01*
X123901200Y-61417200D02*
X123952000Y-61417200D01*
X120599200Y-57581800D02*
X120446800Y-57734200D01*
X120446800Y-57734200D02*
X120446800Y-60811400D01*
X120446800Y-60811400D02*
X121005600Y-61370200D01*
D27*
X93371200Y-34417000D02*
X93371200Y-40717000D01*
X93371200Y-40717000D02*
X97245000Y-44590800D01*
X97245000Y-44590800D02*
X98791200Y-44590800D01*
D26*
X103733600Y-62382400D02*
X103733600Y-63042800D01*
X103733600Y-63042800D02*
X102235000Y-64541400D01*
X102235000Y-64541400D02*
X101930200Y-64541400D01*
X101930200Y-64541400D02*
X101625400Y-64541400D01*
X101625400Y-64541400D02*
X99454800Y-62370800D01*
X99454800Y-62370800D02*
X98791200Y-62370800D01*
X101908600Y-62382400D02*
X101908600Y-62183000D01*
X101908600Y-62183000D02*
X100812600Y-61087000D01*
X100812600Y-61087000D02*
X97180400Y-61087000D01*
X95986600Y-59893200D02*
X95986600Y-46507400D01*
X97180400Y-61087000D02*
X95986600Y-59893200D01*
X97903200Y-44590800D02*
X98791200Y-44590800D01*
X95986600Y-46507400D02*
X97903200Y-44590800D01*
X103632000Y-60020200D02*
X103809800Y-60198000D01*
X103809800Y-60198000D02*
X103809800Y-62306200D01*
X103809800Y-62306200D02*
X103733600Y-62382400D01*
X98791200Y-57290800D02*
X99274800Y-57290800D01*
X99274800Y-57290800D02*
X103098600Y-53467000D01*
X103098600Y-53467000D02*
X110744000Y-53467000D01*
D27*
X96791200Y-70090800D02*
X90831200Y-64130800D01*
X90831200Y-64130800D02*
X90831200Y-34417000D01*
X96791200Y-78090800D02*
X101291200Y-78090800D01*
X101291200Y-78090800D02*
X102291200Y-77090800D01*
X96791200Y-73090800D02*
X101491200Y-73090800D01*
X101491200Y-73090800D02*
X102291200Y-73890800D01*
G04 #@! TA.AperFunction,Conductor*
G36*
X87503667Y-33110985D02*
G01*
X87549422Y-33163789D01*
X87559366Y-33232947D01*
X87530341Y-33296503D01*
X87509513Y-33315618D01*
X87411414Y-33386890D01*
X87411409Y-33386894D01*
X87261090Y-33537213D01*
X87136151Y-33709179D01*
X87039644Y-33898585D01*
X86973953Y-34100760D01*
X86940700Y-34310713D01*
X86940700Y-34523286D01*
X86973953Y-34733239D01*
X87039644Y-34935414D01*
X87136151Y-35124820D01*
X87261090Y-35296786D01*
X87411413Y-35447109D01*
X87583379Y-35572048D01*
X87583381Y-35572049D01*
X87583384Y-35572051D01*
X87772788Y-35668557D01*
X87974957Y-35734246D01*
X88184913Y-35767500D01*
X88184914Y-35767500D01*
X88397486Y-35767500D01*
X88397487Y-35767500D01*
X88607443Y-35734246D01*
X88809612Y-35668557D01*
X88999016Y-35572051D01*
X89085342Y-35509332D01*
X89170986Y-35447109D01*
X89170988Y-35447106D01*
X89170992Y-35447104D01*
X89321304Y-35296792D01*
X89321306Y-35296788D01*
X89321309Y-35296786D01*
X89446248Y-35124820D01*
X89446247Y-35124820D01*
X89446251Y-35124816D01*
X89450714Y-35116054D01*
X89498688Y-35065259D01*
X89566508Y-35048463D01*
X89632644Y-35070999D01*
X89671686Y-35116056D01*
X89676151Y-35124820D01*
X89803959Y-35300734D01*
X89803088Y-35301366D01*
X89829557Y-35360401D01*
X89830700Y-35377199D01*
X89830700Y-64229341D01*
X89830700Y-64229343D01*
X89830699Y-64229343D01*
X89869147Y-64422629D01*
X89869150Y-64422639D01*
X89944564Y-64604707D01*
X89944571Y-64604720D01*
X90054060Y-64768581D01*
X90054063Y-64768585D01*
X90197737Y-64912259D01*
X90197759Y-64912279D01*
X95204381Y-69918901D01*
X95237866Y-69980224D01*
X95240700Y-70006582D01*
X95240700Y-70212826D01*
X95278878Y-70453872D01*
X95354297Y-70685987D01*
X95465096Y-70903442D01*
X95608539Y-71100876D01*
X95608543Y-71100881D01*
X95781118Y-71273456D01*
X95781123Y-71273460D01*
X95953336Y-71398579D01*
X95978561Y-71416906D01*
X96074560Y-71465820D01*
X96103008Y-71480315D01*
X96153804Y-71528290D01*
X96170599Y-71596111D01*
X96148062Y-71662246D01*
X96103008Y-71701285D01*
X95978557Y-71764696D01*
X95781123Y-71908139D01*
X95781118Y-71908143D01*
X95608543Y-72080718D01*
X95608539Y-72080723D01*
X95465096Y-72278157D01*
X95354297Y-72495612D01*
X95278878Y-72727727D01*
X95240700Y-72968773D01*
X95240700Y-73212826D01*
X95278878Y-73453872D01*
X95354297Y-73685987D01*
X95465096Y-73903442D01*
X95608539Y-74100876D01*
X95608543Y-74100881D01*
X95781118Y-74273456D01*
X95781123Y-74273460D01*
X95953336Y-74398579D01*
X95978561Y-74416906D01*
X96196015Y-74527704D01*
X96428124Y-74603121D01*
X96669173Y-74641300D01*
X96669174Y-74641300D01*
X96913226Y-74641300D01*
X96913227Y-74641300D01*
X97154276Y-74603121D01*
X97386385Y-74527704D01*
X97603839Y-74416906D01*
X97801283Y-74273455D01*
X97947120Y-74127618D01*
X98008443Y-74094134D01*
X98034801Y-74091300D01*
X100666701Y-74091300D01*
X100733740Y-74110985D01*
X100779495Y-74163789D01*
X100790701Y-74215300D01*
X100790701Y-74688676D01*
X100797108Y-74748283D01*
X100847402Y-74883128D01*
X100847406Y-74883135D01*
X100933652Y-74998344D01*
X100933655Y-74998347D01*
X101048864Y-75084593D01*
X101048871Y-75084597D01*
X101183717Y-75134891D01*
X101183716Y-75134891D01*
X101190644Y-75135635D01*
X101243327Y-75141300D01*
X103339072Y-75141299D01*
X103398683Y-75134891D01*
X103533531Y-75084596D01*
X103648746Y-74998346D01*
X103734996Y-74883131D01*
X103785291Y-74748283D01*
X103791700Y-74688673D01*
X103791699Y-73092928D01*
X103785291Y-73033317D01*
X103734996Y-72898469D01*
X103734995Y-72898468D01*
X103734993Y-72898464D01*
X103648747Y-72783255D01*
X103648744Y-72783252D01*
X103533535Y-72697006D01*
X103533528Y-72697002D01*
X103398682Y-72646708D01*
X103398683Y-72646708D01*
X103339083Y-72640301D01*
X103339081Y-72640300D01*
X103339073Y-72640300D01*
X103339065Y-72640300D01*
X102506982Y-72640300D01*
X102477541Y-72631655D01*
X102447555Y-72625132D01*
X102442539Y-72621377D01*
X102439943Y-72620615D01*
X102419301Y-72603981D01*
X102272679Y-72457359D01*
X102272659Y-72457337D01*
X102128985Y-72313663D01*
X102128981Y-72313660D01*
X101965120Y-72204171D01*
X101965111Y-72204166D01*
X101892515Y-72174096D01*
X101836365Y-72150838D01*
X101783036Y-72128749D01*
X101783032Y-72128748D01*
X101783028Y-72128746D01*
X101686388Y-72109524D01*
X101589744Y-72090300D01*
X101589741Y-72090300D01*
X98034801Y-72090300D01*
X97967762Y-72070615D01*
X97947120Y-72053982D01*
X97801283Y-71908145D01*
X97801279Y-71908142D01*
X97801275Y-71908138D01*
X97603843Y-71764696D01*
X97479391Y-71701285D01*
X97428595Y-71653311D01*
X97411800Y-71585490D01*
X97434337Y-71519355D01*
X97479391Y-71480315D01*
X97603839Y-71416906D01*
X97801283Y-71273455D01*
X97973855Y-71100883D01*
X98117306Y-70903439D01*
X98228104Y-70685985D01*
X98303521Y-70453876D01*
X98341700Y-70212827D01*
X98341700Y-69968773D01*
X98303521Y-69727724D01*
X98228104Y-69495615D01*
X98117306Y-69278161D01*
X98098979Y-69252936D01*
X97973860Y-69080723D01*
X97973856Y-69080718D01*
X97801281Y-68908143D01*
X97801276Y-68908139D01*
X97603842Y-68764696D01*
X97603841Y-68764695D01*
X97603839Y-68764694D01*
X97386385Y-68653896D01*
X97154276Y-68578479D01*
X97154274Y-68578478D01*
X97154272Y-68578478D01*
X96985969Y-68551821D01*
X96913227Y-68540300D01*
X96706982Y-68540300D01*
X96639943Y-68520615D01*
X96619301Y-68503981D01*
X94780874Y-66665554D01*
X100955201Y-66665554D01*
X100965519Y-66766552D01*
X101019746Y-66930200D01*
X101019751Y-66930211D01*
X101110252Y-67076934D01*
X101110255Y-67076938D01*
X101232161Y-67198844D01*
X101232165Y-67198847D01*
X101378888Y-67289348D01*
X101378899Y-67289353D01*
X101542547Y-67343580D01*
X101643552Y-67353899D01*
X101680200Y-67353899D01*
X102180200Y-67353899D01*
X102216840Y-67353899D01*
X102216854Y-67353898D01*
X102317852Y-67343580D01*
X102481500Y-67289353D01*
X102481511Y-67289348D01*
X102628234Y-67198847D01*
X102628238Y-67198844D01*
X102750144Y-67076938D01*
X102750147Y-67076934D01*
X102840648Y-66930211D01*
X102840653Y-66930200D01*
X102894880Y-66766552D01*
X102905199Y-66665554D01*
X102905200Y-66665541D01*
X102905200Y-66616400D01*
X102180200Y-66616400D01*
X102180200Y-67353899D01*
X101680200Y-67353899D01*
X101680200Y-66616400D01*
X100955201Y-66616400D01*
X100955201Y-66665554D01*
X94780874Y-66665554D01*
X91868019Y-63752699D01*
X91834534Y-63691376D01*
X91831700Y-63665018D01*
X91831700Y-35537859D01*
X91851385Y-35470820D01*
X91904189Y-35425065D01*
X91973347Y-35415121D01*
X92036903Y-35444146D01*
X92071881Y-35494525D01*
X92075121Y-35503211D01*
X92077404Y-35509332D01*
X92077406Y-35509335D01*
X92163652Y-35624544D01*
X92163655Y-35624547D01*
X92278865Y-35710794D01*
X92278867Y-35710794D01*
X92278869Y-35710796D01*
X92290030Y-35714958D01*
X92345964Y-35756826D01*
X92370384Y-35822289D01*
X92370700Y-35831141D01*
X92370700Y-40815541D01*
X92370700Y-40815543D01*
X92370699Y-40815543D01*
X92409147Y-41008829D01*
X92409150Y-41008839D01*
X92484564Y-41190907D01*
X92484571Y-41190920D01*
X92594059Y-41354780D01*
X92594060Y-41354781D01*
X92594061Y-41354782D01*
X92733418Y-41494139D01*
X92733419Y-41494139D01*
X92740486Y-41501206D01*
X92740485Y-41501206D01*
X92740488Y-41501208D01*
X96336664Y-45097385D01*
X96370148Y-45158706D01*
X96365164Y-45228398D01*
X96336663Y-45272745D01*
X95587869Y-46021540D01*
X95500744Y-46108664D01*
X95500738Y-46108672D01*
X95432290Y-46211108D01*
X95432288Y-46211113D01*
X95411494Y-46261316D01*
X95411494Y-46261317D01*
X95385138Y-46324945D01*
X95385135Y-46324955D01*
X95361100Y-46445789D01*
X95361100Y-59954811D01*
X95385135Y-60075644D01*
X95385140Y-60075661D01*
X95432285Y-60189480D01*
X95432287Y-60189483D01*
X95432288Y-60189486D01*
X95466515Y-60240709D01*
X95500742Y-60291933D01*
X95587867Y-60379058D01*
X95587870Y-60379060D01*
X95595154Y-60386344D01*
X96691416Y-61482606D01*
X96691445Y-61482637D01*
X96741880Y-61533071D01*
X96775366Y-61594394D01*
X96778200Y-61620753D01*
X96778200Y-63180670D01*
X96778201Y-63180676D01*
X96784608Y-63240283D01*
X96834902Y-63375128D01*
X96834906Y-63375135D01*
X96921152Y-63490344D01*
X96921155Y-63490347D01*
X97036364Y-63576593D01*
X97036371Y-63576597D01*
X97171217Y-63626891D01*
X97171216Y-63626891D01*
X97178144Y-63627635D01*
X97230827Y-63633300D01*
X99781347Y-63633299D01*
X99848386Y-63652984D01*
X99869028Y-63669618D01*
X100918381Y-64718971D01*
X100951866Y-64780294D01*
X100954700Y-64806649D01*
X100954700Y-64840567D01*
X100954701Y-64840587D01*
X100965025Y-64941652D01*
X101019292Y-65105415D01*
X101019293Y-65105418D01*
X101109861Y-65252251D01*
X101224182Y-65366572D01*
X101257667Y-65427895D01*
X101252683Y-65497587D01*
X101224183Y-65541934D01*
X101110252Y-65655865D01*
X101019751Y-65802588D01*
X101019746Y-65802599D01*
X100965519Y-65966247D01*
X100955200Y-66067245D01*
X100955200Y-66116400D01*
X102905199Y-66116400D01*
X102905199Y-66067260D01*
X102905198Y-66067245D01*
X102894880Y-65966247D01*
X102840653Y-65802599D01*
X102840648Y-65802588D01*
X102750147Y-65655865D01*
X102750144Y-65655861D01*
X102636217Y-65541934D01*
X102602732Y-65480611D01*
X102607716Y-65410919D01*
X102636213Y-65366576D01*
X102750540Y-65252250D01*
X102841108Y-65105416D01*
X102895374Y-64941653D01*
X102905700Y-64840577D01*
X102905700Y-64806649D01*
X102925382Y-64739614D01*
X102942013Y-64718975D01*
X104219457Y-63441534D01*
X104230738Y-63424652D01*
X104287911Y-63339086D01*
X104294706Y-63322678D01*
X104338544Y-63268276D01*
X104344134Y-63264613D01*
X104444450Y-63202740D01*
X104566440Y-63080750D01*
X104657008Y-62933916D01*
X104711274Y-62770153D01*
X104721600Y-62669077D01*
X104721599Y-62095724D01*
X104711274Y-61994647D01*
X104657008Y-61830884D01*
X104566440Y-61684050D01*
X104471618Y-61589228D01*
X104438134Y-61527904D01*
X104435300Y-61501547D01*
X104435300Y-60899152D01*
X104454985Y-60832113D01*
X104471619Y-60811471D01*
X104499139Y-60783951D01*
X104564540Y-60718550D01*
X104655108Y-60571716D01*
X104709374Y-60407953D01*
X104719700Y-60306877D01*
X104719699Y-59733524D01*
X104709374Y-59632447D01*
X104655108Y-59468684D01*
X104564540Y-59321850D01*
X104442550Y-59199860D01*
X104351329Y-59143595D01*
X104295718Y-59109293D01*
X104295713Y-59109291D01*
X104294269Y-59108812D01*
X104131953Y-59055026D01*
X104131951Y-59055025D01*
X104030878Y-59044700D01*
X103332530Y-59044700D01*
X103332512Y-59044701D01*
X103231447Y-59055025D01*
X103067684Y-59109292D01*
X103067681Y-59109293D01*
X102920848Y-59199861D01*
X102906525Y-59214184D01*
X102845201Y-59247668D01*
X102775509Y-59242682D01*
X102731165Y-59214182D01*
X102717238Y-59200255D01*
X102717234Y-59200252D01*
X102570511Y-59109751D01*
X102570500Y-59109746D01*
X102406852Y-59055519D01*
X102305854Y-59045200D01*
X102206700Y-59045200D01*
X102206700Y-60995199D01*
X102305840Y-60995199D01*
X102305854Y-60995198D01*
X102406852Y-60984880D01*
X102570500Y-60930653D01*
X102570511Y-60930648D01*
X102717235Y-60840147D01*
X102731160Y-60826221D01*
X102792482Y-60792733D01*
X102862173Y-60797714D01*
X102906527Y-60826217D01*
X102920850Y-60840540D01*
X103067684Y-60931108D01*
X103099300Y-60941584D01*
X103156746Y-60981354D01*
X103183571Y-61045869D01*
X103184300Y-61059291D01*
X103184300Y-61393208D01*
X103164615Y-61460247D01*
X103125397Y-61498747D01*
X103022748Y-61562061D01*
X102908781Y-61676029D01*
X102847458Y-61709514D01*
X102777766Y-61704530D01*
X102733419Y-61676029D01*
X102619451Y-61562061D01*
X102619450Y-61562060D01*
X102516803Y-61498747D01*
X102472618Y-61471493D01*
X102472613Y-61471491D01*
X102438681Y-61460247D01*
X102308853Y-61417226D01*
X102308851Y-61417225D01*
X102207784Y-61406900D01*
X102207777Y-61406900D01*
X102068452Y-61406900D01*
X102001413Y-61387215D01*
X101980771Y-61370581D01*
X101743019Y-61132829D01*
X101709534Y-61071506D01*
X101706700Y-61045148D01*
X101706700Y-59045199D01*
X101607560Y-59045200D01*
X101607544Y-59045201D01*
X101506547Y-59055519D01*
X101342899Y-59109746D01*
X101342888Y-59109751D01*
X101196165Y-59200252D01*
X101196161Y-59200255D01*
X101074254Y-59322162D01*
X101033737Y-59387851D01*
X100981789Y-59434575D01*
X100912826Y-59445796D01*
X100848744Y-59417953D01*
X100809889Y-59359884D01*
X100804199Y-59322753D01*
X100804199Y-59020929D01*
X100804198Y-59020923D01*
X100797791Y-58961316D01*
X100747497Y-58826471D01*
X100747493Y-58826464D01*
X100661247Y-58711256D01*
X100661248Y-58711256D01*
X100661246Y-58711254D01*
X100592866Y-58660065D01*
X100550997Y-58604133D01*
X100546013Y-58534441D01*
X100579498Y-58473118D01*
X100592861Y-58461538D01*
X100661246Y-58410346D01*
X100747496Y-58295131D01*
X100797791Y-58160283D01*
X100804200Y-58100673D01*
X100804199Y-56697350D01*
X100823884Y-56630312D01*
X100840513Y-56609675D01*
X103321371Y-54128819D01*
X103382694Y-54095334D01*
X103409052Y-54092500D01*
X109414903Y-54092500D01*
X109481942Y-54112185D01*
X109525387Y-54160203D01*
X109539734Y-54188361D01*
X109546187Y-54201026D01*
X109675752Y-54379358D01*
X109675756Y-54379363D01*
X109831640Y-54535247D01*
X109971679Y-54636990D01*
X110014345Y-54692319D01*
X110020324Y-54761933D01*
X109987719Y-54823728D01*
X109971679Y-54837626D01*
X109946485Y-54855930D01*
X109946485Y-54855932D01*
X110614591Y-55524037D01*
X110551007Y-55541075D01*
X110436993Y-55606901D01*
X110343901Y-55699993D01*
X110278075Y-55814007D01*
X110261037Y-55877590D01*
X109592932Y-55209485D01*
X109592931Y-55209485D01*
X109546616Y-55273233D01*
X109446567Y-55469589D01*
X109378473Y-55679164D01*
X109344000Y-55896818D01*
X109344000Y-56117181D01*
X109378473Y-56334835D01*
X109446567Y-56544410D01*
X109546611Y-56740756D01*
X109592932Y-56804513D01*
X110261037Y-56136408D01*
X110278075Y-56199993D01*
X110343901Y-56314007D01*
X110436993Y-56407099D01*
X110551007Y-56472925D01*
X110614590Y-56489962D01*
X109946485Y-57158065D01*
X109946485Y-57158066D01*
X110010243Y-57204388D01*
X110206589Y-57304432D01*
X110416164Y-57372526D01*
X110633819Y-57407000D01*
X110854181Y-57407000D01*
X111071835Y-57372526D01*
X111281410Y-57304432D01*
X111477760Y-57204386D01*
X111541513Y-57158066D01*
X111541514Y-57158066D01*
X110873409Y-56489962D01*
X110936993Y-56472925D01*
X111051007Y-56407099D01*
X111144099Y-56314007D01*
X111209925Y-56199993D01*
X111226962Y-56136409D01*
X111895066Y-56804514D01*
X111895066Y-56804513D01*
X111941386Y-56740760D01*
X112041432Y-56544410D01*
X112109526Y-56334835D01*
X112144000Y-56117181D01*
X112144000Y-55896821D01*
X112142717Y-55888724D01*
X112151668Y-55819430D01*
X112196661Y-55765976D01*
X112263411Y-55745332D01*
X112330726Y-55764053D01*
X112352870Y-55781638D01*
X114217751Y-57646518D01*
X114251236Y-57707841D01*
X114246252Y-57777533D01*
X114217751Y-57821880D01*
X113488450Y-58551180D01*
X113488444Y-58551188D01*
X113439212Y-58624868D01*
X113439213Y-58624869D01*
X113406321Y-58674096D01*
X113406314Y-58674108D01*
X113349742Y-58810686D01*
X113349740Y-58810692D01*
X113320900Y-58955679D01*
X113320900Y-58955682D01*
X113320900Y-61132418D01*
X113320900Y-61132420D01*
X113320899Y-61132420D01*
X113349740Y-61277407D01*
X113349743Y-61277417D01*
X113406313Y-61413990D01*
X113406316Y-61413995D01*
X113418215Y-61431802D01*
X113418216Y-61431807D01*
X113418218Y-61431807D01*
X113464661Y-61501316D01*
X113488451Y-61536920D01*
X113488452Y-61536921D01*
X114029381Y-62077849D01*
X114062866Y-62139172D01*
X114065700Y-62165529D01*
X114065700Y-62377468D01*
X114065701Y-62377487D01*
X114076025Y-62478552D01*
X114130292Y-62642315D01*
X114130293Y-62642318D01*
X114164595Y-62697929D01*
X114220860Y-62789150D01*
X114342850Y-62911140D01*
X114489684Y-63001708D01*
X114653447Y-63055974D01*
X114754523Y-63066300D01*
X115143246Y-63066299D01*
X115210285Y-63085983D01*
X115230927Y-63102618D01*
X115722241Y-63593932D01*
X115722242Y-63593933D01*
X115770760Y-63642451D01*
X115809368Y-63681059D01*
X115911807Y-63749507D01*
X115911813Y-63749510D01*
X115911814Y-63749511D01*
X116025648Y-63796663D01*
X116146488Y-63820699D01*
X116146492Y-63820700D01*
X116146493Y-63820700D01*
X116146494Y-63820700D01*
X120063409Y-63820700D01*
X120130448Y-63840385D01*
X120168948Y-63879604D01*
X120185260Y-63906050D01*
X120307250Y-64028040D01*
X120454084Y-64118608D01*
X120617847Y-64172874D01*
X120718923Y-64183200D01*
X121292276Y-64183199D01*
X121292284Y-64183198D01*
X121292287Y-64183198D01*
X121347630Y-64177544D01*
X121393353Y-64172874D01*
X121557116Y-64118608D01*
X121703950Y-64028040D01*
X121825940Y-63906050D01*
X121825940Y-63906049D01*
X121827971Y-63904019D01*
X121889294Y-63870534D01*
X121915652Y-63867700D01*
X123009809Y-63867700D01*
X123076848Y-63887385D01*
X123115348Y-63926604D01*
X123131660Y-63953050D01*
X123253650Y-64075040D01*
X123400484Y-64165608D01*
X123564247Y-64219874D01*
X123665323Y-64230200D01*
X124238676Y-64230199D01*
X124238684Y-64230198D01*
X124238687Y-64230198D01*
X124294030Y-64224544D01*
X124339753Y-64219874D01*
X124503516Y-64165608D01*
X124650350Y-64075040D01*
X124772340Y-63953050D01*
X124862908Y-63806216D01*
X124917174Y-63642453D01*
X124927500Y-63541377D01*
X124927499Y-62943024D01*
X124926568Y-62933913D01*
X124917174Y-62841947D01*
X124899679Y-62789151D01*
X124862908Y-62678184D01*
X124772340Y-62531350D01*
X124658371Y-62417381D01*
X124624886Y-62356058D01*
X124629870Y-62286366D01*
X124658371Y-62242019D01*
X124705371Y-62195019D01*
X124772340Y-62128050D01*
X124862908Y-61981216D01*
X124917174Y-61817453D01*
X124927500Y-61716377D01*
X124927499Y-61118024D01*
X124927160Y-61114709D01*
X124917174Y-61016947D01*
X124917173Y-61016944D01*
X124909037Y-60992392D01*
X124862908Y-60853184D01*
X124772340Y-60706350D01*
X124650350Y-60584360D01*
X124503516Y-60493792D01*
X124339753Y-60439526D01*
X124339751Y-60439525D01*
X124238684Y-60429200D01*
X124238677Y-60429200D01*
X123888700Y-60429200D01*
X123821661Y-60409515D01*
X123775906Y-60356711D01*
X123764700Y-60305200D01*
X123764700Y-58725664D01*
X123784385Y-58658625D01*
X123815815Y-58625346D01*
X123816286Y-58625004D01*
X123961664Y-58519381D01*
X124102181Y-58378864D01*
X124218987Y-58218094D01*
X124309205Y-58041032D01*
X124370613Y-57852036D01*
X124401700Y-57655761D01*
X124401700Y-57457039D01*
X124370613Y-57260764D01*
X124309205Y-57071768D01*
X124309205Y-57071767D01*
X124231928Y-56920105D01*
X124218987Y-56894706D01*
X124102181Y-56733936D01*
X123961664Y-56593419D01*
X123800894Y-56476613D01*
X123793656Y-56472925D01*
X123623832Y-56386394D01*
X123623829Y-56386393D01*
X123434837Y-56324987D01*
X123336698Y-56309443D01*
X123238561Y-56293900D01*
X123039839Y-56293900D01*
X122974414Y-56304262D01*
X122843562Y-56324987D01*
X122654570Y-56386393D01*
X122654567Y-56386394D01*
X122477505Y-56476613D01*
X122316733Y-56593421D01*
X122176221Y-56733933D01*
X122059411Y-56894707D01*
X121973212Y-57063881D01*
X121925238Y-57114676D01*
X121857417Y-57131471D01*
X121791282Y-57108933D01*
X121752244Y-57063881D01*
X121678987Y-56920106D01*
X121562181Y-56759336D01*
X121421664Y-56618819D01*
X121260894Y-56502013D01*
X121203806Y-56472925D01*
X121083832Y-56411794D01*
X121083829Y-56411793D01*
X120894837Y-56350387D01*
X120796645Y-56334835D01*
X120698561Y-56319300D01*
X120499839Y-56319300D01*
X120463933Y-56324987D01*
X120303562Y-56350387D01*
X120114570Y-56411793D01*
X120114567Y-56411794D01*
X119937505Y-56502013D01*
X119776733Y-56618821D01*
X119636221Y-56759333D01*
X119519413Y-56920105D01*
X119439404Y-57077131D01*
X119391429Y-57127927D01*
X119323608Y-57144722D01*
X119257473Y-57122184D01*
X119218434Y-57077131D01*
X119138558Y-56920367D01*
X119111468Y-56883083D01*
X118440200Y-57554351D01*
X118440200Y-57531640D01*
X118414236Y-57434739D01*
X118364076Y-57347860D01*
X118293140Y-57276924D01*
X118206261Y-57226764D01*
X118109360Y-57200800D01*
X118086647Y-57200800D01*
X118757916Y-56529531D01*
X118757915Y-56529530D01*
X118720632Y-56502441D01*
X118543637Y-56412257D01*
X118354722Y-56350875D01*
X118158521Y-56319800D01*
X117959879Y-56319800D01*
X117763679Y-56350875D01*
X117763676Y-56350875D01*
X117574762Y-56412257D01*
X117397764Y-56502443D01*
X117360483Y-56529529D01*
X117360482Y-56529530D01*
X118031754Y-57200800D01*
X118009040Y-57200800D01*
X117912139Y-57226764D01*
X117825260Y-57276924D01*
X117754324Y-57347860D01*
X117704164Y-57434739D01*
X117678200Y-57531640D01*
X117678200Y-57554352D01*
X117006930Y-56883082D01*
X117006929Y-56883083D01*
X116979841Y-56920366D01*
X116899964Y-57077132D01*
X116851990Y-57127927D01*
X116784169Y-57144722D01*
X116718034Y-57122184D01*
X116678996Y-57077132D01*
X116598987Y-56920106D01*
X116482181Y-56759336D01*
X116341664Y-56618819D01*
X116180894Y-56502013D01*
X116123806Y-56472925D01*
X116003832Y-56411794D01*
X116003829Y-56411793D01*
X115814837Y-56350387D01*
X115716645Y-56334835D01*
X115618561Y-56319300D01*
X115419839Y-56319300D01*
X115383933Y-56324987D01*
X115223560Y-56350387D01*
X115160569Y-56370854D01*
X115090728Y-56372849D01*
X115034571Y-56340604D01*
X112880819Y-54186851D01*
X112847334Y-54125528D01*
X112844500Y-54099170D01*
X112844500Y-52833890D01*
X112830383Y-52762922D01*
X112828000Y-52738730D01*
X112828000Y-52186579D01*
X112799159Y-52041592D01*
X112799158Y-52041591D01*
X112799158Y-52041587D01*
X112796819Y-52035941D01*
X112742585Y-51905007D01*
X112720566Y-51872053D01*
X112681531Y-51813632D01*
X112660452Y-51782084D01*
X112157876Y-51279508D01*
X112124391Y-51218185D01*
X112123084Y-51172434D01*
X112144500Y-51037222D01*
X112144500Y-50816778D01*
X112110015Y-50599049D01*
X112058260Y-50439761D01*
X112041896Y-50389396D01*
X112041895Y-50389393D01*
X111984910Y-50277556D01*
X111941815Y-50192978D01*
X111925260Y-50170192D01*
X111812247Y-50014641D01*
X111812243Y-50014636D01*
X111656363Y-49858756D01*
X111656358Y-49858752D01*
X111478025Y-49729187D01*
X111478024Y-49729186D01*
X111478022Y-49729185D01*
X111415096Y-49697122D01*
X111281606Y-49629104D01*
X111281603Y-49629103D01*
X111071952Y-49560985D01*
X110963086Y-49543742D01*
X110854222Y-49526500D01*
X110633778Y-49526500D01*
X110633773Y-49526500D01*
X110498569Y-49547914D01*
X110429275Y-49538959D01*
X110391490Y-49513122D01*
X109772413Y-48894045D01*
X109722840Y-48860923D01*
X109690801Y-48839516D01*
X109649495Y-48811916D01*
X109649494Y-48811915D01*
X109649492Y-48811914D01*
X109649490Y-48811913D01*
X109512917Y-48755343D01*
X109512907Y-48755340D01*
X109367920Y-48726500D01*
X109367918Y-48726500D01*
X108042546Y-48726500D01*
X107975507Y-48706815D01*
X107929752Y-48654011D01*
X107919808Y-48584853D01*
X107948833Y-48521297D01*
X107954865Y-48514819D01*
X107957143Y-48512540D01*
X107957145Y-48512537D01*
X108047648Y-48365811D01*
X108047653Y-48365800D01*
X108101880Y-48202152D01*
X108112199Y-48101154D01*
X108112200Y-48101141D01*
X108112200Y-48002000D01*
X106162201Y-48002000D01*
X106162201Y-48101154D01*
X106172519Y-48202152D01*
X106226746Y-48365800D01*
X106226751Y-48365811D01*
X106317252Y-48512534D01*
X106321733Y-48518201D01*
X106319712Y-48519798D01*
X106347421Y-48570542D01*
X106342437Y-48640234D01*
X106300565Y-48696167D01*
X106235101Y-48720584D01*
X106226255Y-48720900D01*
X103660248Y-48720900D01*
X103593209Y-48701215D01*
X103573239Y-48685248D01*
X103562569Y-48674739D01*
X103556712Y-48665244D01*
X103432656Y-48541188D01*
X103417416Y-48531788D01*
X103407431Y-48521954D01*
X103396990Y-48503176D01*
X103382618Y-48487197D01*
X103380347Y-48473242D01*
X103373479Y-48460889D01*
X103374848Y-48439441D01*
X103371397Y-48418234D01*
X103377030Y-48405268D01*
X103377931Y-48391161D01*
X103390677Y-48373859D01*
X103399240Y-48354152D01*
X103415708Y-48339882D01*
X103419373Y-48334909D01*
X103423083Y-48333492D01*
X103429348Y-48328065D01*
X103432342Y-48326218D01*
X103556315Y-48202245D01*
X103648356Y-48053024D01*
X103648358Y-48053019D01*
X103703505Y-47886597D01*
X103703506Y-47886590D01*
X103713999Y-47783886D01*
X103714000Y-47783873D01*
X103714000Y-47646400D01*
X101264001Y-47646400D01*
X101264001Y-47783886D01*
X101274494Y-47886597D01*
X101329641Y-48053019D01*
X101329643Y-48053024D01*
X101421684Y-48202245D01*
X101545655Y-48326216D01*
X101545659Y-48326219D01*
X101548656Y-48328068D01*
X101550279Y-48329872D01*
X101551323Y-48330698D01*
X101551181Y-48330876D01*
X101595381Y-48380016D01*
X101606602Y-48448979D01*
X101578759Y-48513061D01*
X101548661Y-48539141D01*
X101545349Y-48541183D01*
X101545343Y-48541188D01*
X101421289Y-48665242D01*
X101329187Y-48814563D01*
X101329183Y-48814572D01*
X101322313Y-48835306D01*
X101282540Y-48892750D01*
X101218023Y-48919572D01*
X101204608Y-48920300D01*
X100921966Y-48920300D01*
X100854927Y-48900615D01*
X100809172Y-48847811D01*
X100798676Y-48809550D01*
X100797791Y-48801316D01*
X100747497Y-48666471D01*
X100747493Y-48666464D01*
X100661247Y-48551255D01*
X100647799Y-48541188D01*
X100592450Y-48499753D01*
X100550580Y-48443819D01*
X100545596Y-48374127D01*
X100579082Y-48312805D01*
X100592452Y-48301220D01*
X100660889Y-48249988D01*
X100660890Y-48249987D01*
X100747050Y-48134893D01*
X100747054Y-48134886D01*
X100797296Y-48000179D01*
X100797298Y-48000172D01*
X100803699Y-47940644D01*
X100803700Y-47940627D01*
X100803700Y-47402845D01*
X106162200Y-47402845D01*
X106162200Y-47502000D01*
X106887200Y-47502000D01*
X107387200Y-47502000D01*
X108112199Y-47502000D01*
X108112199Y-47402860D01*
X108112198Y-47402845D01*
X108101880Y-47301847D01*
X108047653Y-47138199D01*
X108047648Y-47138188D01*
X107957147Y-46991465D01*
X107957144Y-46991461D01*
X107835238Y-46869555D01*
X107835234Y-46869552D01*
X107688511Y-46779051D01*
X107688500Y-46779046D01*
X107524852Y-46724819D01*
X107423854Y-46714500D01*
X107387200Y-46714500D01*
X107387200Y-47502000D01*
X106887200Y-47502000D01*
X106887200Y-46714500D01*
X106850561Y-46714500D01*
X106850543Y-46714501D01*
X106749547Y-46724819D01*
X106585899Y-46779046D01*
X106585888Y-46779051D01*
X106439165Y-46869552D01*
X106439161Y-46869555D01*
X106317255Y-46991461D01*
X106317252Y-46991465D01*
X106226751Y-47138188D01*
X106226746Y-47138199D01*
X106172519Y-47301847D01*
X106162200Y-47402845D01*
X100803700Y-47402845D01*
X100803700Y-47380800D01*
X98915200Y-47380800D01*
X98848161Y-47361115D01*
X98802406Y-47308311D01*
X98791200Y-47256800D01*
X98791200Y-47008913D01*
X101264000Y-47008913D01*
X101264000Y-47146400D01*
X102239000Y-47146400D01*
X102739000Y-47146400D01*
X103713999Y-47146400D01*
X103713999Y-47008928D01*
X103713998Y-47008913D01*
X103703505Y-46906202D01*
X103648358Y-46739780D01*
X103648356Y-46739775D01*
X103556315Y-46590554D01*
X103432345Y-46466584D01*
X103283124Y-46374543D01*
X103283119Y-46374541D01*
X103116697Y-46319394D01*
X103116690Y-46319393D01*
X103013986Y-46308900D01*
X102739000Y-46308900D01*
X102739000Y-47146400D01*
X102239000Y-47146400D01*
X102239000Y-46308900D01*
X101964029Y-46308900D01*
X101964012Y-46308901D01*
X101861302Y-46319394D01*
X101694880Y-46374541D01*
X101694875Y-46374543D01*
X101545654Y-46466584D01*
X101421684Y-46590554D01*
X101329643Y-46739775D01*
X101329641Y-46739780D01*
X101274494Y-46906202D01*
X101274493Y-46906209D01*
X101264000Y-47008913D01*
X98791200Y-47008913D01*
X98791200Y-47004800D01*
X98810885Y-46937761D01*
X98863689Y-46892006D01*
X98915200Y-46880800D01*
X100803700Y-46880800D01*
X100803700Y-46320972D01*
X100803699Y-46320955D01*
X100797298Y-46261427D01*
X100797296Y-46261420D01*
X100747054Y-46126713D01*
X100747050Y-46126706D01*
X100660890Y-46011613D01*
X100592451Y-45960379D01*
X100550580Y-45904445D01*
X100545596Y-45834753D01*
X100579081Y-45773430D01*
X100592442Y-45761852D01*
X100661246Y-45710346D01*
X100747496Y-45595131D01*
X100797791Y-45460283D01*
X100804200Y-45400673D01*
X100804199Y-43780928D01*
X100797791Y-43721317D01*
X100747496Y-43586469D01*
X100747495Y-43586468D01*
X100747493Y-43586464D01*
X100661247Y-43471255D01*
X100661244Y-43471252D01*
X100546035Y-43385006D01*
X100546028Y-43385002D01*
X100411182Y-43334708D01*
X100411183Y-43334708D01*
X100351583Y-43328301D01*
X100351581Y-43328300D01*
X100351573Y-43328300D01*
X100351565Y-43328300D01*
X97448783Y-43328300D01*
X97381744Y-43308615D01*
X97361102Y-43291981D01*
X94408019Y-40338898D01*
X94374534Y-40277575D01*
X94371700Y-40251217D01*
X94371700Y-35831141D01*
X94391385Y-35764102D01*
X94444189Y-35718347D01*
X94452349Y-35714966D01*
X94463531Y-35710796D01*
X94578746Y-35624546D01*
X94664996Y-35509331D01*
X94715291Y-35374483D01*
X94721700Y-35314873D01*
X94721699Y-33519128D01*
X94715291Y-33459517D01*
X94714010Y-33456083D01*
X94664997Y-33324671D01*
X94664995Y-33324668D01*
X94638752Y-33289612D01*
X94614334Y-33224148D01*
X94629185Y-33155875D01*
X94678590Y-33106469D01*
X94738018Y-33091300D01*
X101191700Y-33091300D01*
X101258739Y-33110985D01*
X101304494Y-33163789D01*
X101315700Y-33215300D01*
X101315700Y-45206691D01*
X101349808Y-45333987D01*
X101382754Y-45391050D01*
X101415700Y-45448114D01*
X101508886Y-45541300D01*
X101623014Y-45607192D01*
X101750308Y-45641300D01*
X101882092Y-45641300D01*
X126146900Y-45641300D01*
X126213939Y-45660985D01*
X126259694Y-45713789D01*
X126270900Y-45765300D01*
X126270900Y-64966300D01*
X126251215Y-65033339D01*
X126198411Y-65079094D01*
X126146900Y-65090300D01*
X105020308Y-65090300D01*
X104893012Y-65124408D01*
X104778886Y-65190300D01*
X104778883Y-65190302D01*
X104685702Y-65283483D01*
X104685700Y-65283486D01*
X104619808Y-65397612D01*
X104585700Y-65524908D01*
X104585700Y-83119300D01*
X104566015Y-83186339D01*
X104513211Y-83232094D01*
X104461700Y-83243300D01*
X80939056Y-83243300D01*
X80872017Y-83223615D01*
X80826262Y-83170811D01*
X80815056Y-83119468D01*
X80815056Y-83119300D01*
X80808088Y-77968773D01*
X95240700Y-77968773D01*
X95240700Y-78212827D01*
X95278879Y-78453876D01*
X95354296Y-78685985D01*
X95370798Y-78718373D01*
X95465096Y-78903442D01*
X95608539Y-79100876D01*
X95608543Y-79100881D01*
X95781118Y-79273456D01*
X95781123Y-79273460D01*
X95953336Y-79398579D01*
X95978561Y-79416906D01*
X96097745Y-79477633D01*
X96103558Y-79480595D01*
X96154354Y-79528570D01*
X96171149Y-79596391D01*
X96148612Y-79662525D01*
X96103558Y-79701565D01*
X95978826Y-79765119D01*
X95886297Y-79832344D01*
X96661791Y-80607837D01*
X96598207Y-80624875D01*
X96484193Y-80690701D01*
X96391101Y-80783793D01*
X96325275Y-80897807D01*
X96308237Y-80961390D01*
X95532744Y-80185897D01*
X95465519Y-80278426D01*
X95354760Y-80495801D01*
X95279365Y-80727840D01*
X95241200Y-80968806D01*
X95241200Y-81212793D01*
X95279365Y-81453759D01*
X95354760Y-81685798D01*
X95465523Y-81903180D01*
X95532743Y-81995701D01*
X95532744Y-81995702D01*
X96308237Y-81220209D01*
X96325275Y-81283793D01*
X96391101Y-81397807D01*
X96484193Y-81490899D01*
X96598207Y-81556725D01*
X96661790Y-81573762D01*
X95886296Y-82349254D01*
X95886297Y-82349256D01*
X95978819Y-82416476D01*
X96196201Y-82527239D01*
X96428240Y-82602634D01*
X96669207Y-82640800D01*
X96913193Y-82640800D01*
X97154159Y-82602634D01*
X97386198Y-82527239D01*
X97603577Y-82416478D01*
X97696101Y-82349254D01*
X97696102Y-82349254D01*
X96920609Y-81573762D01*
X96984193Y-81556725D01*
X97098207Y-81490899D01*
X97191299Y-81397807D01*
X97257125Y-81283793D01*
X97274162Y-81220210D01*
X98049654Y-81995702D01*
X98049654Y-81995701D01*
X98116878Y-81903177D01*
X98227639Y-81685798D01*
X98303034Y-81453759D01*
X98341200Y-81212793D01*
X98341200Y-80968806D01*
X98303034Y-80727840D01*
X98227639Y-80495801D01*
X98116876Y-80278419D01*
X98049656Y-80185897D01*
X98049654Y-80185896D01*
X97274162Y-80961389D01*
X97257125Y-80897807D01*
X97191299Y-80783793D01*
X97098207Y-80690701D01*
X96984193Y-80624875D01*
X96920608Y-80607837D01*
X97696102Y-79832344D01*
X97696101Y-79832343D01*
X97603581Y-79765123D01*
X97478841Y-79701565D01*
X97428045Y-79653590D01*
X97411250Y-79585769D01*
X97433787Y-79519635D01*
X97478842Y-79480595D01*
X97489752Y-79475035D01*
X97603839Y-79416906D01*
X97801283Y-79273455D01*
X97947120Y-79127618D01*
X98008443Y-79094134D01*
X98034801Y-79091300D01*
X101389742Y-79091300D01*
X101420766Y-79085128D01*
X101486388Y-79072075D01*
X101583036Y-79052851D01*
X101636365Y-79030761D01*
X101765114Y-78977432D01*
X101928982Y-78867939D01*
X102068339Y-78728582D01*
X102068339Y-78728580D01*
X102078547Y-78718373D01*
X102078548Y-78718370D01*
X102419302Y-78377618D01*
X102480625Y-78344133D01*
X102506983Y-78341299D01*
X103339071Y-78341299D01*
X103339072Y-78341299D01*
X103398683Y-78334891D01*
X103533531Y-78284596D01*
X103648746Y-78198346D01*
X103734996Y-78083131D01*
X103785291Y-77948283D01*
X103791700Y-77888673D01*
X103791699Y-76292928D01*
X103785291Y-76233317D01*
X103734996Y-76098469D01*
X103734995Y-76098468D01*
X103734993Y-76098464D01*
X103648747Y-75983255D01*
X103648744Y-75983252D01*
X103533535Y-75897006D01*
X103533528Y-75897002D01*
X103398682Y-75846708D01*
X103398683Y-75846708D01*
X103339083Y-75840301D01*
X103339081Y-75840300D01*
X103339073Y-75840300D01*
X103339064Y-75840300D01*
X101243329Y-75840300D01*
X101243323Y-75840301D01*
X101183716Y-75846708D01*
X101048871Y-75897002D01*
X101048864Y-75897006D01*
X100933655Y-75983252D01*
X100933652Y-75983255D01*
X100847406Y-76098464D01*
X100847402Y-76098471D01*
X100797108Y-76233317D01*
X100790701Y-76292916D01*
X100790701Y-76292923D01*
X100790700Y-76292935D01*
X100790700Y-76966300D01*
X100771015Y-77033339D01*
X100718211Y-77079094D01*
X100666700Y-77090300D01*
X98034801Y-77090300D01*
X97967762Y-77070615D01*
X97947120Y-77053982D01*
X97926477Y-77033339D01*
X97801283Y-76908145D01*
X97801279Y-76908142D01*
X97801275Y-76908138D01*
X97603842Y-76764696D01*
X97603841Y-76764695D01*
X97603839Y-76764694D01*
X97386385Y-76653896D01*
X97154276Y-76578479D01*
X97154274Y-76578478D01*
X97154272Y-76578478D01*
X96985969Y-76551821D01*
X96913227Y-76540300D01*
X96669173Y-76540300D01*
X96613293Y-76549150D01*
X96428127Y-76578478D01*
X96196012Y-76653897D01*
X95978557Y-76764696D01*
X95781123Y-76908139D01*
X95781118Y-76908143D01*
X95608543Y-77080718D01*
X95608539Y-77080723D01*
X95465096Y-77278157D01*
X95354297Y-77495612D01*
X95278878Y-77727727D01*
X95243945Y-77948283D01*
X95240700Y-77968773D01*
X80808088Y-77968773D01*
X80788672Y-63616600D01*
X80808266Y-63549536D01*
X80861008Y-63503709D01*
X80930153Y-63493672D01*
X80986983Y-63517168D01*
X81066364Y-63576593D01*
X81066371Y-63576597D01*
X81201217Y-63626891D01*
X81201216Y-63626891D01*
X81208144Y-63627635D01*
X81260827Y-63633300D01*
X84381572Y-63633299D01*
X84441183Y-63626891D01*
X84576031Y-63576596D01*
X84691246Y-63490346D01*
X84777496Y-63375131D01*
X84827791Y-63240283D01*
X84834200Y-63180673D01*
X84834199Y-61560928D01*
X84827791Y-61501317D01*
X84826832Y-61498747D01*
X84777497Y-61366471D01*
X84777493Y-61366464D01*
X84716345Y-61284782D01*
X84691246Y-61251254D01*
X84622866Y-61200065D01*
X84580997Y-61144133D01*
X84576013Y-61074441D01*
X84609498Y-61013118D01*
X84622861Y-61001538D01*
X84691246Y-60950346D01*
X84777496Y-60835131D01*
X84827791Y-60700283D01*
X84834200Y-60640673D01*
X84834199Y-59020928D01*
X84827791Y-58961317D01*
X84825689Y-58955682D01*
X84777497Y-58826471D01*
X84777493Y-58826464D01*
X84691247Y-58711256D01*
X84691248Y-58711256D01*
X84691246Y-58711254D01*
X84622866Y-58660065D01*
X84580997Y-58604133D01*
X84576013Y-58534441D01*
X84609498Y-58473118D01*
X84622861Y-58461538D01*
X84691246Y-58410346D01*
X84777496Y-58295131D01*
X84827791Y-58160283D01*
X84834200Y-58100673D01*
X84834199Y-56480928D01*
X84827791Y-56421317D01*
X84824239Y-56411794D01*
X84777497Y-56286471D01*
X84777493Y-56286464D01*
X84691247Y-56171256D01*
X84691248Y-56171256D01*
X84691246Y-56171254D01*
X84622866Y-56120065D01*
X84580997Y-56064133D01*
X84576013Y-55994441D01*
X84609498Y-55933118D01*
X84622861Y-55921538D01*
X84691246Y-55870346D01*
X84777496Y-55755131D01*
X84827791Y-55620283D01*
X84834200Y-55560673D01*
X84834200Y-55500300D01*
X84853885Y-55433261D01*
X84906689Y-55387506D01*
X84958200Y-55376300D01*
X87909639Y-55376300D01*
X87976678Y-55395985D01*
X87997321Y-55412620D01*
X88046561Y-55461861D01*
X88046565Y-55461864D01*
X88194046Y-55560409D01*
X88194059Y-55560416D01*
X88306286Y-55606901D01*
X88357934Y-55628294D01*
X88357936Y-55628294D01*
X88357941Y-55628296D01*
X88531904Y-55662899D01*
X88531907Y-55662900D01*
X88531909Y-55662900D01*
X88709293Y-55662900D01*
X88709294Y-55662899D01*
X88767282Y-55651364D01*
X88883258Y-55628296D01*
X88883261Y-55628294D01*
X88883266Y-55628294D01*
X89046495Y-55560683D01*
X89047140Y-55560416D01*
X89047140Y-55560415D01*
X89047147Y-55560413D01*
X89194635Y-55461864D01*
X89320064Y-55336435D01*
X89418613Y-55188947D01*
X89486494Y-55025066D01*
X89506734Y-54923316D01*
X89521099Y-54851095D01*
X89521100Y-54851093D01*
X89521100Y-54673706D01*
X89521099Y-54673704D01*
X89486496Y-54499741D01*
X89486493Y-54499732D01*
X89418616Y-54335859D01*
X89418609Y-54335846D01*
X89320064Y-54188365D01*
X89320061Y-54188361D01*
X89194638Y-54062938D01*
X89194634Y-54062935D01*
X89047153Y-53964390D01*
X89047140Y-53964383D01*
X88883267Y-53896506D01*
X88883258Y-53896503D01*
X88709294Y-53861900D01*
X88709291Y-53861900D01*
X88531909Y-53861900D01*
X88531906Y-53861900D01*
X88357941Y-53896503D01*
X88357932Y-53896506D01*
X88194059Y-53964383D01*
X88194046Y-53964390D01*
X88046565Y-54062935D01*
X88046561Y-54062938D01*
X88020519Y-54088981D01*
X87959196Y-54122466D01*
X87932838Y-54125300D01*
X84958199Y-54125300D01*
X84891160Y-54105615D01*
X84845405Y-54052811D01*
X84834199Y-54001300D01*
X84834199Y-53940929D01*
X84834198Y-53940923D01*
X84827791Y-53881316D01*
X84777497Y-53746471D01*
X84777493Y-53746464D01*
X84691247Y-53631256D01*
X84691248Y-53631256D01*
X84691246Y-53631254D01*
X84622866Y-53580065D01*
X84580997Y-53524133D01*
X84576013Y-53454441D01*
X84609498Y-53393118D01*
X84622861Y-53381538D01*
X84691246Y-53330346D01*
X84777496Y-53215131D01*
X84827791Y-53080283D01*
X84834200Y-53020673D01*
X84834200Y-52960300D01*
X84853885Y-52893261D01*
X84906689Y-52847506D01*
X84958200Y-52836300D01*
X87782638Y-52836300D01*
X87849677Y-52855985D01*
X87870319Y-52872619D01*
X87995761Y-52998061D01*
X87995765Y-52998064D01*
X88143246Y-53096609D01*
X88143259Y-53096616D01*
X88266163Y-53147523D01*
X88307134Y-53164494D01*
X88307136Y-53164494D01*
X88307141Y-53164496D01*
X88481104Y-53199099D01*
X88481107Y-53199100D01*
X88481109Y-53199100D01*
X88658493Y-53199100D01*
X88658494Y-53199099D01*
X88716482Y-53187564D01*
X88832458Y-53164496D01*
X88832461Y-53164494D01*
X88832466Y-53164494D01*
X88996347Y-53096613D01*
X89143835Y-52998064D01*
X89269264Y-52872635D01*
X89367813Y-52725147D01*
X89435694Y-52561266D01*
X89470300Y-52387291D01*
X89470300Y-52209909D01*
X89470300Y-52209906D01*
X89470299Y-52209904D01*
X89435696Y-52035941D01*
X89435693Y-52035932D01*
X89367816Y-51872059D01*
X89367809Y-51872046D01*
X89269264Y-51724565D01*
X89269261Y-51724561D01*
X89143838Y-51599138D01*
X89143834Y-51599135D01*
X88996353Y-51500590D01*
X88996340Y-51500583D01*
X88832467Y-51432706D01*
X88832458Y-51432703D01*
X88658494Y-51398100D01*
X88658491Y-51398100D01*
X88481109Y-51398100D01*
X88481106Y-51398100D01*
X88307141Y-51432703D01*
X88307132Y-51432706D01*
X88143259Y-51500583D01*
X88143252Y-51500587D01*
X88099253Y-51529987D01*
X88047746Y-51564402D01*
X87981071Y-51585280D01*
X87978857Y-51585300D01*
X84958199Y-51585300D01*
X84891160Y-51565615D01*
X84845405Y-51512811D01*
X84834199Y-51461300D01*
X84834199Y-51400929D01*
X84834198Y-51400923D01*
X84827791Y-51341316D01*
X84777497Y-51206471D01*
X84777493Y-51206464D01*
X84691247Y-51091256D01*
X84691248Y-51091256D01*
X84691246Y-51091254D01*
X84622866Y-51040065D01*
X84580997Y-50984133D01*
X84576013Y-50914441D01*
X84609498Y-50853118D01*
X84622861Y-50841538D01*
X84691246Y-50790346D01*
X84777496Y-50675131D01*
X84827791Y-50540283D01*
X84834200Y-50480673D01*
X84834199Y-48860928D01*
X84827791Y-48801317D01*
X84810643Y-48755342D01*
X84777497Y-48666471D01*
X84777493Y-48666464D01*
X84691247Y-48551256D01*
X84691248Y-48551256D01*
X84691246Y-48551254D01*
X84622866Y-48500065D01*
X84580997Y-48444133D01*
X84576013Y-48374441D01*
X84609498Y-48313118D01*
X84622861Y-48301538D01*
X84691246Y-48250346D01*
X84777496Y-48135131D01*
X84827791Y-48000283D01*
X84834200Y-47940673D01*
X84834199Y-46320928D01*
X84827791Y-46261317D01*
X84809064Y-46211108D01*
X84777497Y-46126471D01*
X84777493Y-46126464D01*
X84725823Y-46057443D01*
X84691246Y-46011254D01*
X84622866Y-45960065D01*
X84580997Y-45904133D01*
X84576013Y-45834441D01*
X84609498Y-45773118D01*
X84622861Y-45761538D01*
X84691246Y-45710346D01*
X84777496Y-45595131D01*
X84827791Y-45460283D01*
X84834200Y-45400673D01*
X84834199Y-43780928D01*
X84827791Y-43721317D01*
X84777496Y-43586469D01*
X84777495Y-43586468D01*
X84777493Y-43586464D01*
X84691247Y-43471255D01*
X84691244Y-43471252D01*
X84576035Y-43385006D01*
X84576028Y-43385002D01*
X84441182Y-43334708D01*
X84441183Y-43334708D01*
X84381583Y-43328301D01*
X84381581Y-43328300D01*
X84381573Y-43328300D01*
X84381564Y-43328300D01*
X81260829Y-43328300D01*
X81260823Y-43328301D01*
X81201216Y-43334708D01*
X81066371Y-43385002D01*
X81066369Y-43385004D01*
X80959587Y-43464941D01*
X80894123Y-43489358D01*
X80825850Y-43474507D01*
X80776444Y-43425101D01*
X80761276Y-43365844D01*
X80747545Y-33215468D01*
X80767139Y-33148402D01*
X80819881Y-33102575D01*
X80871545Y-33091300D01*
X87436628Y-33091300D01*
X87503667Y-33110985D01*
G37*
G04 #@! TD.AperFunction*
G04 #@! TA.AperFunction,Conductor*
G36*
X119111468Y-58280515D02*
G01*
X119138564Y-58243222D01*
X119218434Y-58086469D01*
X119266408Y-58035672D01*
X119334229Y-58018877D01*
X119400364Y-58041414D01*
X119439403Y-58086467D01*
X119519413Y-58243494D01*
X119636219Y-58404264D01*
X119776736Y-58544781D01*
X119776744Y-58544786D01*
X119777825Y-58545710D01*
X119778125Y-58546170D01*
X119780181Y-58548226D01*
X119779749Y-58548657D01*
X119816022Y-58604214D01*
X119821300Y-58640006D01*
X119821300Y-60873010D01*
X119845335Y-60993846D01*
X119845339Y-60993859D01*
X119848518Y-61001533D01*
X119854903Y-61016947D01*
X119892488Y-61107686D01*
X119926715Y-61158909D01*
X119930779Y-61164991D01*
X119960941Y-61210133D01*
X119960944Y-61210136D01*
X119993780Y-61242971D01*
X120027266Y-61304293D01*
X120030100Y-61330653D01*
X120030100Y-61669368D01*
X120030101Y-61669387D01*
X120040425Y-61770452D01*
X120094692Y-61934215D01*
X120094693Y-61934218D01*
X120185261Y-62081051D01*
X120299229Y-62195019D01*
X120302134Y-62200339D01*
X120307157Y-62203738D01*
X120318686Y-62230651D01*
X120332714Y-62256342D01*
X120332281Y-62262389D01*
X120334669Y-62267963D01*
X120329818Y-62296829D01*
X120327730Y-62326034D01*
X120323838Y-62332419D01*
X120323091Y-62336867D01*
X120309460Y-62356010D01*
X120303313Y-62366098D01*
X120301329Y-62368280D01*
X120185260Y-62484350D01*
X120162908Y-62520587D01*
X120155174Y-62529098D01*
X120134766Y-62541540D01*
X120117000Y-62557521D01*
X120103539Y-62560579D01*
X120095518Y-62565471D01*
X120083291Y-62565181D01*
X120063409Y-62569700D01*
X117983873Y-62569700D01*
X117916834Y-62550015D01*
X117871079Y-62497211D01*
X117860515Y-62433098D01*
X117866199Y-62377456D01*
X117866200Y-62377441D01*
X117866200Y-62340800D01*
X116952700Y-62340800D01*
X116885661Y-62321115D01*
X116839906Y-62268311D01*
X116828700Y-62216800D01*
X116828700Y-62090800D01*
X116702700Y-62090800D01*
X116635661Y-62071115D01*
X116589906Y-62018311D01*
X116578700Y-61966800D01*
X116578700Y-61840800D01*
X117078700Y-61840800D01*
X117866199Y-61840800D01*
X117866199Y-61804160D01*
X117866198Y-61804145D01*
X117855880Y-61703147D01*
X117801653Y-61539499D01*
X117801648Y-61539488D01*
X117711147Y-61392765D01*
X117711144Y-61392761D01*
X117589238Y-61270855D01*
X117589234Y-61270852D01*
X117442511Y-61180351D01*
X117442500Y-61180346D01*
X117278852Y-61126119D01*
X117177854Y-61115800D01*
X117078700Y-61115800D01*
X117078700Y-61840800D01*
X116578700Y-61840800D01*
X116578700Y-61115799D01*
X116479560Y-61115800D01*
X116479544Y-61115801D01*
X116378547Y-61126119D01*
X116214899Y-61180346D01*
X116214888Y-61180351D01*
X116068165Y-61270852D01*
X116054232Y-61284785D01*
X115992908Y-61318268D01*
X115923216Y-61313282D01*
X115878872Y-61284782D01*
X115864551Y-61270461D01*
X115864550Y-61270460D01*
X115750425Y-61200067D01*
X115717718Y-61179893D01*
X115717713Y-61179891D01*
X115672787Y-61165004D01*
X115553953Y-61125626D01*
X115553951Y-61125625D01*
X115452884Y-61115300D01*
X115452877Y-61115300D01*
X115240929Y-61115300D01*
X115173890Y-61095615D01*
X115153248Y-61078981D01*
X114858219Y-60783951D01*
X114824734Y-60722628D01*
X114821900Y-60696270D01*
X114821900Y-59391828D01*
X114841585Y-59324789D01*
X114858215Y-59304151D01*
X115287307Y-58875058D01*
X115348628Y-58841575D01*
X115394383Y-58840268D01*
X115419839Y-58844300D01*
X115419840Y-58844300D01*
X115618560Y-58844300D01*
X115618561Y-58844300D01*
X115814836Y-58813213D01*
X116003832Y-58751805D01*
X116180894Y-58661587D01*
X116341664Y-58544781D01*
X116482181Y-58404264D01*
X116598987Y-58243494D01*
X116678996Y-58086467D01*
X116726969Y-58035672D01*
X116794790Y-58018877D01*
X116860925Y-58041414D01*
X116899965Y-58086468D01*
X116979841Y-58243232D01*
X117006930Y-58280515D01*
X117006931Y-58280516D01*
X117678200Y-57609247D01*
X117678200Y-57631960D01*
X117704164Y-57728861D01*
X117754324Y-57815740D01*
X117825260Y-57886676D01*
X117912139Y-57936836D01*
X118009040Y-57962800D01*
X118031753Y-57962800D01*
X117360483Y-58634068D01*
X117360483Y-58634069D01*
X117397767Y-58661158D01*
X117574762Y-58751342D01*
X117763677Y-58812724D01*
X117959879Y-58843800D01*
X118158521Y-58843800D01*
X118354720Y-58812724D01*
X118354723Y-58812724D01*
X118543637Y-58751342D01*
X118720625Y-58661162D01*
X118757916Y-58634068D01*
X118086648Y-57962800D01*
X118109360Y-57962800D01*
X118206261Y-57936836D01*
X118293140Y-57886676D01*
X118364076Y-57815740D01*
X118414236Y-57728861D01*
X118440200Y-57631960D01*
X118440200Y-57609247D01*
X119111468Y-58280515D01*
G37*
G04 #@! TD.AperFunction*
M02*
