G04 #@! TF.GenerationSoftware,KiCad,Pcbnew,9.0.9-9.0.9~ubuntu22.04.1*
G04 #@! TF.CreationDate,2026-07-23T20:04:43+07:00*
G04 #@! TF.ProjectId,custom_phonecase,63757374-6f6d-45f7-9068-6f6e65636173,rev?*
G04 #@! TF.SameCoordinates,Original*
G04 #@! TF.FileFunction,Copper,L2,Bot*
G04 #@! TF.FilePolarity,Positive*
%FSLAX46Y46*%
G04 Gerber Fmt 4.6, Leading zero omitted, Abs format (unit mm)*
G04 Created by KiCad (PCBNEW 9.0.9-9.0.9~ubuntu22.04.1) date 2026-07-23 20:04:43*
%MOMM*%
%LPD*%
G01*
G04 APERTURE LIST*
G04 #@! TA.AperFunction,ComponentPad*
%ADD10C,1.524000*%
G04 #@! TD*
G04 #@! TA.AperFunction,ComponentPad*
%ADD11C,1.800000*%
G04 #@! TD*
G04 #@! TA.AperFunction,ComponentPad*
%ADD12C,2.100000*%
G04 #@! TD*
G04 #@! TA.AperFunction,ComponentPad*
%ADD13R,1.700000X1.700000*%
G04 #@! TD*
G04 #@! TA.AperFunction,ComponentPad*
%ADD14O,1.700000X1.700000*%
G04 #@! TD*
G04 #@! TA.AperFunction,ViaPad*
%ADD15C,0.800000*%
G04 #@! TD*
G04 #@! TA.AperFunction,Conductor*
%ADD16C,0.250000*%
G04 #@! TD*
G04 APERTURE END LIST*
D10*
X115519200Y-57581800D03*
X118059200Y-57581800D03*
X120599200Y-57581800D03*
X123139200Y-57556400D03*
D11*
X110744000Y-50927000D03*
X110744000Y-53467000D03*
X110744000Y-56007000D03*
D12*
X96791200Y-70090800D03*
X96791200Y-81090800D03*
X96791200Y-73090800D03*
X96791200Y-78090800D03*
D13*
X93371200Y-34417000D03*
D14*
X90831200Y-34417000D03*
X88291200Y-34417000D03*
D15*
X88569800Y-52298600D03*
X88620600Y-54762400D03*
D16*
X117824800Y-52242000D02*
X123139200Y-57556400D01*
X88569800Y-52298600D02*
X88626400Y-52242000D01*
X88626400Y-52242000D02*
X117824800Y-52242000D01*
X88620600Y-54762400D02*
X117779800Y-54762400D01*
X117779800Y-54762400D02*
X120599200Y-57581800D01*
G04 #@! TA.AperFunction,Conductor*
G36*
X87503667Y-33110985D02*
G01*
X87549422Y-33163789D01*
X87559366Y-33232947D01*
X87530341Y-33296503D01*
X87509513Y-33315618D01*
X87411414Y-33386890D01*
X87411409Y-33386894D01*
X87261090Y-33537213D01*
X87136151Y-33709179D01*
X87039644Y-33898585D01*
X86973953Y-34100760D01*
X86940700Y-34310713D01*
X86940700Y-34523286D01*
X86973953Y-34733239D01*
X87039644Y-34935414D01*
X87136151Y-35124820D01*
X87261090Y-35296786D01*
X87411413Y-35447109D01*
X87583379Y-35572048D01*
X87583381Y-35572049D01*
X87583384Y-35572051D01*
X87772788Y-35668557D01*
X87974957Y-35734246D01*
X88184913Y-35767500D01*
X88184914Y-35767500D01*
X88397486Y-35767500D01*
X88397487Y-35767500D01*
X88607443Y-35734246D01*
X88809612Y-35668557D01*
X88999016Y-35572051D01*
X89085338Y-35509335D01*
X89170986Y-35447109D01*
X89170988Y-35447106D01*
X89170992Y-35447104D01*
X89321304Y-35296792D01*
X89321306Y-35296788D01*
X89321309Y-35296786D01*
X89446248Y-35124820D01*
X89446247Y-35124820D01*
X89446251Y-35124816D01*
X89450714Y-35116054D01*
X89498688Y-35065259D01*
X89566508Y-35048463D01*
X89632644Y-35070999D01*
X89671686Y-35116056D01*
X89676151Y-35124820D01*
X89801090Y-35296786D01*
X89951413Y-35447109D01*
X90123379Y-35572048D01*
X90123381Y-35572049D01*
X90123384Y-35572051D01*
X90312788Y-35668557D01*
X90514957Y-35734246D01*
X90724913Y-35767500D01*
X90724914Y-35767500D01*
X90937486Y-35767500D01*
X90937487Y-35767500D01*
X91147443Y-35734246D01*
X91349612Y-35668557D01*
X91539016Y-35572051D01*
X91710992Y-35447104D01*
X91824529Y-35333566D01*
X91885848Y-35300084D01*
X91955540Y-35305068D01*
X92011474Y-35346939D01*
X92028389Y-35377917D01*
X92077402Y-35509328D01*
X92077406Y-35509335D01*
X92163652Y-35624544D01*
X92163655Y-35624547D01*
X92278864Y-35710793D01*
X92278871Y-35710797D01*
X92413717Y-35761091D01*
X92413716Y-35761091D01*
X92420644Y-35761835D01*
X92473327Y-35767500D01*
X94269072Y-35767499D01*
X94328683Y-35761091D01*
X94463531Y-35710796D01*
X94578746Y-35624546D01*
X94664996Y-35509331D01*
X94715291Y-35374483D01*
X94721700Y-35314873D01*
X94721699Y-33519128D01*
X94715291Y-33459517D01*
X94688204Y-33386894D01*
X94664997Y-33324671D01*
X94664995Y-33324668D01*
X94643911Y-33296503D01*
X94638751Y-33289611D01*
X94614334Y-33224148D01*
X94629185Y-33155875D01*
X94678590Y-33106469D01*
X94738018Y-33091300D01*
X101191700Y-33091300D01*
X101258739Y-33110985D01*
X101304494Y-33163789D01*
X101315700Y-33215300D01*
X101315700Y-45206691D01*
X101349808Y-45333987D01*
X101382754Y-45391050D01*
X101415700Y-45448114D01*
X101508886Y-45541300D01*
X101623014Y-45607192D01*
X101750308Y-45641300D01*
X101882092Y-45641300D01*
X126146900Y-45641300D01*
X126213939Y-45660985D01*
X126259694Y-45713789D01*
X126270900Y-45765300D01*
X126270900Y-64966300D01*
X126251215Y-65033339D01*
X126198411Y-65079094D01*
X126146900Y-65090300D01*
X105020308Y-65090300D01*
X104893012Y-65124408D01*
X104778886Y-65190300D01*
X104778883Y-65190302D01*
X104685702Y-65283483D01*
X104685700Y-65283486D01*
X104619808Y-65397612D01*
X104585700Y-65524908D01*
X104585700Y-83119300D01*
X104566015Y-83186339D01*
X104513211Y-83232094D01*
X104461700Y-83243300D01*
X80939056Y-83243300D01*
X80872017Y-83223615D01*
X80826262Y-83170811D01*
X80815056Y-83119468D01*
X80815056Y-83119300D01*
X80808088Y-77968773D01*
X95240700Y-77968773D01*
X95240700Y-78212826D01*
X95278878Y-78453872D01*
X95354297Y-78685987D01*
X95465096Y-78903442D01*
X95608539Y-79100876D01*
X95608543Y-79100881D01*
X95781118Y-79273456D01*
X95781123Y-79273460D01*
X95953336Y-79398579D01*
X95978561Y-79416906D01*
X96097745Y-79477633D01*
X96103558Y-79480595D01*
X96154354Y-79528570D01*
X96171149Y-79596391D01*
X96148612Y-79662525D01*
X96103558Y-79701565D01*
X95978826Y-79765119D01*
X95886297Y-79832344D01*
X96661791Y-80607837D01*
X96598207Y-80624875D01*
X96484193Y-80690701D01*
X96391101Y-80783793D01*
X96325275Y-80897807D01*
X96308237Y-80961390D01*
X95532744Y-80185897D01*
X95465519Y-80278426D01*
X95354760Y-80495801D01*
X95279365Y-80727840D01*
X95241200Y-80968806D01*
X95241200Y-81212793D01*
X95279365Y-81453759D01*
X95354760Y-81685798D01*
X95465523Y-81903180D01*
X95532743Y-81995701D01*
X95532744Y-81995702D01*
X96308237Y-81220209D01*
X96325275Y-81283793D01*
X96391101Y-81397807D01*
X96484193Y-81490899D01*
X96598207Y-81556725D01*
X96661790Y-81573762D01*
X95886296Y-82349254D01*
X95886297Y-82349256D01*
X95978819Y-82416476D01*
X96196201Y-82527239D01*
X96428240Y-82602634D01*
X96669207Y-82640800D01*
X96913193Y-82640800D01*
X97154159Y-82602634D01*
X97386198Y-82527239D01*
X97603577Y-82416478D01*
X97696101Y-82349254D01*
X97696102Y-82349254D01*
X96920609Y-81573762D01*
X96984193Y-81556725D01*
X97098207Y-81490899D01*
X97191299Y-81397807D01*
X97257125Y-81283793D01*
X97274162Y-81220210D01*
X98049654Y-81995702D01*
X98049654Y-81995701D01*
X98116878Y-81903177D01*
X98227639Y-81685798D01*
X98303034Y-81453759D01*
X98341200Y-81212793D01*
X98341200Y-80968806D01*
X98303034Y-80727840D01*
X98227639Y-80495801D01*
X98116876Y-80278419D01*
X98049656Y-80185897D01*
X98049654Y-80185896D01*
X97274162Y-80961389D01*
X97257125Y-80897807D01*
X97191299Y-80783793D01*
X97098207Y-80690701D01*
X96984193Y-80624875D01*
X96920608Y-80607837D01*
X97696102Y-79832344D01*
X97696101Y-79832343D01*
X97603581Y-79765123D01*
X97478841Y-79701565D01*
X97428045Y-79653590D01*
X97411250Y-79585769D01*
X97433787Y-79519635D01*
X97478842Y-79480595D01*
X97489752Y-79475035D01*
X97603839Y-79416906D01*
X97801283Y-79273455D01*
X97973855Y-79100883D01*
X98117306Y-78903439D01*
X98228104Y-78685985D01*
X98303521Y-78453876D01*
X98341700Y-78212827D01*
X98341700Y-77968773D01*
X98303521Y-77727724D01*
X98228104Y-77495615D01*
X98117306Y-77278161D01*
X98098979Y-77252936D01*
X97973860Y-77080723D01*
X97973856Y-77080718D01*
X97801281Y-76908143D01*
X97801276Y-76908139D01*
X97603842Y-76764696D01*
X97603841Y-76764695D01*
X97603839Y-76764694D01*
X97386385Y-76653896D01*
X97154276Y-76578479D01*
X97154274Y-76578478D01*
X97154272Y-76578478D01*
X96985969Y-76551821D01*
X96913227Y-76540300D01*
X96669173Y-76540300D01*
X96613293Y-76549150D01*
X96428127Y-76578478D01*
X96196012Y-76653897D01*
X95978557Y-76764696D01*
X95781123Y-76908139D01*
X95781118Y-76908143D01*
X95608543Y-77080718D01*
X95608539Y-77080723D01*
X95465096Y-77278157D01*
X95354297Y-77495612D01*
X95278878Y-77727727D01*
X95240700Y-77968773D01*
X80808088Y-77968773D01*
X80797266Y-69968773D01*
X95240700Y-69968773D01*
X95240700Y-70212826D01*
X95278878Y-70453872D01*
X95354297Y-70685987D01*
X95465096Y-70903442D01*
X95608539Y-71100876D01*
X95608543Y-71100881D01*
X95781118Y-71273456D01*
X95781123Y-71273460D01*
X95953336Y-71398579D01*
X95978561Y-71416906D01*
X96074560Y-71465820D01*
X96103008Y-71480315D01*
X96153804Y-71528290D01*
X96170599Y-71596111D01*
X96148062Y-71662246D01*
X96103008Y-71701285D01*
X95978557Y-71764696D01*
X95781123Y-71908139D01*
X95781118Y-71908143D01*
X95608543Y-72080718D01*
X95608539Y-72080723D01*
X95465096Y-72278157D01*
X95354297Y-72495612D01*
X95278878Y-72727727D01*
X95240700Y-72968773D01*
X95240700Y-73212826D01*
X95278878Y-73453872D01*
X95354297Y-73685987D01*
X95465096Y-73903442D01*
X95608539Y-74100876D01*
X95608543Y-74100881D01*
X95781118Y-74273456D01*
X95781123Y-74273460D01*
X95953336Y-74398579D01*
X95978561Y-74416906D01*
X96196015Y-74527704D01*
X96428124Y-74603121D01*
X96669173Y-74641300D01*
X96669174Y-74641300D01*
X96913226Y-74641300D01*
X96913227Y-74641300D01*
X97154276Y-74603121D01*
X97386385Y-74527704D01*
X97603839Y-74416906D01*
X97801283Y-74273455D01*
X97973855Y-74100883D01*
X98117306Y-73903439D01*
X98228104Y-73685985D01*
X98303521Y-73453876D01*
X98341700Y-73212827D01*
X98341700Y-72968773D01*
X98303521Y-72727724D01*
X98228104Y-72495615D01*
X98117306Y-72278161D01*
X98098979Y-72252936D01*
X97973860Y-72080723D01*
X97973856Y-72080718D01*
X97801281Y-71908143D01*
X97801276Y-71908139D01*
X97603843Y-71764696D01*
X97479391Y-71701285D01*
X97428595Y-71653311D01*
X97411800Y-71585490D01*
X97434337Y-71519355D01*
X97479391Y-71480315D01*
X97603839Y-71416906D01*
X97801283Y-71273455D01*
X97973855Y-71100883D01*
X98117306Y-70903439D01*
X98228104Y-70685985D01*
X98303521Y-70453876D01*
X98341700Y-70212827D01*
X98341700Y-69968773D01*
X98303521Y-69727724D01*
X98228104Y-69495615D01*
X98117306Y-69278161D01*
X98098979Y-69252936D01*
X97973860Y-69080723D01*
X97973856Y-69080718D01*
X97801281Y-68908143D01*
X97801276Y-68908139D01*
X97603842Y-68764696D01*
X97603841Y-68764695D01*
X97603839Y-68764694D01*
X97386385Y-68653896D01*
X97154276Y-68578479D01*
X97154274Y-68578478D01*
X97154272Y-68578478D01*
X96985969Y-68551821D01*
X96913227Y-68540300D01*
X96669173Y-68540300D01*
X96613293Y-68549150D01*
X96428127Y-68578478D01*
X96196012Y-68653897D01*
X95978557Y-68764696D01*
X95781123Y-68908139D01*
X95781118Y-68908143D01*
X95608543Y-69080718D01*
X95608539Y-69080723D01*
X95465096Y-69278157D01*
X95354297Y-69495612D01*
X95278878Y-69727727D01*
X95240700Y-69968773D01*
X80797266Y-69968773D01*
X80773241Y-52209904D01*
X87669300Y-52209904D01*
X87669300Y-52387295D01*
X87703903Y-52561258D01*
X87703906Y-52561267D01*
X87771783Y-52725140D01*
X87771790Y-52725153D01*
X87870335Y-52872634D01*
X87870338Y-52872638D01*
X87995761Y-52998061D01*
X87995765Y-52998064D01*
X88143246Y-53096609D01*
X88143259Y-53096616D01*
X88266163Y-53147523D01*
X88307134Y-53164494D01*
X88307136Y-53164494D01*
X88307141Y-53164496D01*
X88481104Y-53199099D01*
X88481107Y-53199100D01*
X88481109Y-53199100D01*
X88658493Y-53199100D01*
X88658494Y-53199099D01*
X88716482Y-53187564D01*
X88832458Y-53164496D01*
X88832461Y-53164494D01*
X88832466Y-53164494D01*
X88996347Y-53096613D01*
X89143835Y-52998064D01*
X89238081Y-52903817D01*
X89299402Y-52870334D01*
X89325761Y-52867500D01*
X109295544Y-52867500D01*
X109362583Y-52887185D01*
X109408338Y-52939989D01*
X109418282Y-53009147D01*
X109413475Y-53029817D01*
X109377985Y-53139045D01*
X109343500Y-53356778D01*
X109343500Y-53577221D01*
X109377985Y-53794954D01*
X109436349Y-53974583D01*
X109438344Y-54044424D01*
X109402263Y-54104256D01*
X109339562Y-54135084D01*
X109318418Y-54136900D01*
X89319961Y-54136900D01*
X89252922Y-54117215D01*
X89232279Y-54100580D01*
X89194638Y-54062938D01*
X89194634Y-54062935D01*
X89047153Y-53964390D01*
X89047140Y-53964383D01*
X88883267Y-53896506D01*
X88883258Y-53896503D01*
X88709294Y-53861900D01*
X88709291Y-53861900D01*
X88531909Y-53861900D01*
X88531906Y-53861900D01*
X88357941Y-53896503D01*
X88357932Y-53896506D01*
X88194059Y-53964383D01*
X88194046Y-53964390D01*
X88046565Y-54062935D01*
X88046561Y-54062938D01*
X87921138Y-54188361D01*
X87921135Y-54188365D01*
X87822590Y-54335846D01*
X87822583Y-54335859D01*
X87754706Y-54499732D01*
X87754703Y-54499741D01*
X87720100Y-54673704D01*
X87720100Y-54851095D01*
X87754703Y-55025058D01*
X87754706Y-55025067D01*
X87822583Y-55188940D01*
X87822590Y-55188953D01*
X87921135Y-55336434D01*
X87921138Y-55336438D01*
X88046561Y-55461861D01*
X88046565Y-55461864D01*
X88194046Y-55560409D01*
X88194059Y-55560416D01*
X88306286Y-55606901D01*
X88357934Y-55628294D01*
X88357936Y-55628294D01*
X88357941Y-55628296D01*
X88531904Y-55662899D01*
X88531907Y-55662900D01*
X88531909Y-55662900D01*
X88709293Y-55662900D01*
X88709294Y-55662899D01*
X88767282Y-55651364D01*
X88883258Y-55628296D01*
X88883261Y-55628294D01*
X88883266Y-55628294D01*
X89047147Y-55560413D01*
X89194635Y-55461864D01*
X89232279Y-55424220D01*
X89293601Y-55390734D01*
X89319961Y-55387900D01*
X109302440Y-55387900D01*
X109369479Y-55407585D01*
X109415234Y-55460389D01*
X109425178Y-55529547D01*
X109420371Y-55550219D01*
X109378472Y-55679167D01*
X109344000Y-55896818D01*
X109344000Y-56117181D01*
X109378473Y-56334835D01*
X109446567Y-56544410D01*
X109546611Y-56740756D01*
X109592932Y-56804513D01*
X110261037Y-56136408D01*
X110278075Y-56199993D01*
X110343901Y-56314007D01*
X110436993Y-56407099D01*
X110551007Y-56472925D01*
X110614590Y-56489962D01*
X109946485Y-57158065D01*
X109946485Y-57158066D01*
X110010243Y-57204388D01*
X110206589Y-57304432D01*
X110416164Y-57372526D01*
X110633819Y-57407000D01*
X110854181Y-57407000D01*
X111071835Y-57372526D01*
X111111510Y-57359636D01*
X111281410Y-57304432D01*
X111477760Y-57204386D01*
X111541513Y-57158066D01*
X111541514Y-57158066D01*
X110873409Y-56489962D01*
X110936993Y-56472925D01*
X111051007Y-56407099D01*
X111144099Y-56314007D01*
X111209925Y-56199993D01*
X111226962Y-56136409D01*
X111895066Y-56804514D01*
X111895066Y-56804513D01*
X111941386Y-56740760D01*
X112041432Y-56544410D01*
X112109526Y-56334835D01*
X112144000Y-56117181D01*
X112144000Y-55896818D01*
X112109527Y-55679167D01*
X112067629Y-55550219D01*
X112065634Y-55480377D01*
X112101714Y-55420544D01*
X112164415Y-55389716D01*
X112185560Y-55387900D01*
X117469348Y-55387900D01*
X117536387Y-55407585D01*
X117557029Y-55424219D01*
X118240929Y-56108119D01*
X118274414Y-56169442D01*
X118269430Y-56239134D01*
X118227558Y-56295067D01*
X118162094Y-56319484D01*
X118153248Y-56319800D01*
X117959879Y-56319800D01*
X117763679Y-56350875D01*
X117763676Y-56350875D01*
X117574762Y-56412257D01*
X117397764Y-56502443D01*
X117360483Y-56529529D01*
X117360482Y-56529530D01*
X118031754Y-57200800D01*
X118009040Y-57200800D01*
X117912139Y-57226764D01*
X117825260Y-57276924D01*
X117754324Y-57347860D01*
X117704164Y-57434739D01*
X117678200Y-57531640D01*
X117678200Y-57554352D01*
X117006930Y-56883082D01*
X117006929Y-56883083D01*
X116979841Y-56920366D01*
X116899964Y-57077132D01*
X116851990Y-57127927D01*
X116784169Y-57144722D01*
X116718034Y-57122184D01*
X116678996Y-57077132D01*
X116598987Y-56920106D01*
X116482181Y-56759336D01*
X116341664Y-56618819D01*
X116180894Y-56502013D01*
X116123806Y-56472925D01*
X116003832Y-56411794D01*
X116003829Y-56411793D01*
X115814837Y-56350387D01*
X115654467Y-56324987D01*
X115618561Y-56319300D01*
X115419839Y-56319300D01*
X115383933Y-56324987D01*
X115223562Y-56350387D01*
X115034570Y-56411793D01*
X115034567Y-56411794D01*
X114857505Y-56502013D01*
X114696733Y-56618821D01*
X114556221Y-56759333D01*
X114439413Y-56920105D01*
X114349194Y-57097167D01*
X114349193Y-57097170D01*
X114287787Y-57286162D01*
X114256700Y-57482439D01*
X114256700Y-57681160D01*
X114287787Y-57877437D01*
X114349193Y-58066429D01*
X114349194Y-58066432D01*
X114359404Y-58086469D01*
X114439413Y-58243494D01*
X114556219Y-58404264D01*
X114696736Y-58544781D01*
X114857506Y-58661587D01*
X114944349Y-58705835D01*
X115034567Y-58751805D01*
X115034570Y-58751806D01*
X115129066Y-58782509D01*
X115223564Y-58813213D01*
X115419839Y-58844300D01*
X115419840Y-58844300D01*
X115618560Y-58844300D01*
X115618561Y-58844300D01*
X115814836Y-58813213D01*
X116003832Y-58751805D01*
X116180894Y-58661587D01*
X116341664Y-58544781D01*
X116482181Y-58404264D01*
X116598987Y-58243494D01*
X116678996Y-58086467D01*
X116726969Y-58035672D01*
X116794790Y-58018877D01*
X116860925Y-58041414D01*
X116899965Y-58086468D01*
X116979841Y-58243232D01*
X117006930Y-58280515D01*
X117006931Y-58280516D01*
X117678200Y-57609247D01*
X117678200Y-57631960D01*
X117704164Y-57728861D01*
X117754324Y-57815740D01*
X117825260Y-57886676D01*
X117912139Y-57936836D01*
X118009040Y-57962800D01*
X118031753Y-57962800D01*
X117360483Y-58634068D01*
X117360483Y-58634069D01*
X117397767Y-58661158D01*
X117574762Y-58751342D01*
X117763677Y-58812724D01*
X117959879Y-58843800D01*
X118158521Y-58843800D01*
X118354720Y-58812724D01*
X118354723Y-58812724D01*
X118543637Y-58751342D01*
X118720625Y-58661162D01*
X118757916Y-58634068D01*
X118086648Y-57962800D01*
X118109360Y-57962800D01*
X118206261Y-57936836D01*
X118293140Y-57886676D01*
X118364076Y-57815740D01*
X118414236Y-57728861D01*
X118440200Y-57631960D01*
X118440200Y-57609246D01*
X119111468Y-58280515D01*
X119138564Y-58243222D01*
X119218434Y-58086469D01*
X119266408Y-58035672D01*
X119334229Y-58018877D01*
X119400364Y-58041414D01*
X119439403Y-58086467D01*
X119519413Y-58243494D01*
X119636219Y-58404264D01*
X119776736Y-58544781D01*
X119937506Y-58661587D01*
X120024349Y-58705835D01*
X120114567Y-58751805D01*
X120114570Y-58751806D01*
X120209066Y-58782509D01*
X120303564Y-58813213D01*
X120499839Y-58844300D01*
X120499840Y-58844300D01*
X120698560Y-58844300D01*
X120698561Y-58844300D01*
X120894836Y-58813213D01*
X121083832Y-58751805D01*
X121260894Y-58661587D01*
X121421664Y-58544781D01*
X121562181Y-58404264D01*
X121678987Y-58243494D01*
X121765186Y-58074318D01*
X121813161Y-58023523D01*
X121880982Y-58006728D01*
X121947117Y-58029265D01*
X121986155Y-58074318D01*
X122059413Y-58218094D01*
X122176219Y-58378864D01*
X122316736Y-58519381D01*
X122477506Y-58636187D01*
X122527356Y-58661587D01*
X122654567Y-58726405D01*
X122654570Y-58726406D01*
X122731317Y-58751342D01*
X122843564Y-58787813D01*
X123039839Y-58818900D01*
X123039840Y-58818900D01*
X123238560Y-58818900D01*
X123238561Y-58818900D01*
X123434836Y-58787813D01*
X123623832Y-58726405D01*
X123800894Y-58636187D01*
X123961664Y-58519381D01*
X124102181Y-58378864D01*
X124218987Y-58218094D01*
X124309205Y-58041032D01*
X124370613Y-57852036D01*
X124401700Y-57655761D01*
X124401700Y-57457039D01*
X124370613Y-57260764D01*
X124309205Y-57071768D01*
X124309205Y-57071767D01*
X124218986Y-56894705D01*
X124210542Y-56883083D01*
X124102181Y-56733936D01*
X123961664Y-56593419D01*
X123800894Y-56476613D01*
X123793656Y-56472925D01*
X123623832Y-56386394D01*
X123623829Y-56386393D01*
X123434837Y-56324987D01*
X123254446Y-56296416D01*
X123238561Y-56293900D01*
X123039839Y-56293900D01*
X122861778Y-56322101D01*
X122792485Y-56313146D01*
X122754700Y-56287309D01*
X118320622Y-51853232D01*
X118310659Y-51843269D01*
X118310658Y-51843267D01*
X118223533Y-51756142D01*
X118172309Y-51721915D01*
X118121086Y-51687688D01*
X118121083Y-51687686D01*
X118121080Y-51687685D01*
X118047403Y-51657168D01*
X118047401Y-51657167D01*
X118040592Y-51654347D01*
X118007252Y-51640537D01*
X117946829Y-51628518D01*
X117942106Y-51627578D01*
X117942104Y-51627578D01*
X117886410Y-51616500D01*
X117886407Y-51616500D01*
X117886406Y-51616500D01*
X112163213Y-51616500D01*
X112096174Y-51596815D01*
X112050419Y-51544011D01*
X112040475Y-51474853D01*
X112045282Y-51454182D01*
X112063504Y-51398100D01*
X112110015Y-51254951D01*
X112144500Y-51037222D01*
X112144500Y-50816778D01*
X112110015Y-50599049D01*
X112041895Y-50389394D01*
X112041895Y-50389393D01*
X112007237Y-50321375D01*
X111941815Y-50192978D01*
X111925260Y-50170192D01*
X111812247Y-50014641D01*
X111812243Y-50014636D01*
X111656363Y-49858756D01*
X111656358Y-49858752D01*
X111478025Y-49729187D01*
X111478024Y-49729186D01*
X111478022Y-49729185D01*
X111415096Y-49697122D01*
X111281606Y-49629104D01*
X111281603Y-49629103D01*
X111071952Y-49560985D01*
X110963086Y-49543742D01*
X110854222Y-49526500D01*
X110633778Y-49526500D01*
X110561201Y-49537995D01*
X110416047Y-49560985D01*
X110206396Y-49629103D01*
X110206393Y-49629104D01*
X110009974Y-49729187D01*
X109831641Y-49858752D01*
X109831636Y-49858756D01*
X109675756Y-50014636D01*
X109675752Y-50014641D01*
X109546187Y-50192974D01*
X109446104Y-50389393D01*
X109446103Y-50389396D01*
X109377985Y-50599047D01*
X109343500Y-50816778D01*
X109343500Y-51037221D01*
X109377985Y-51254952D01*
X109442718Y-51454182D01*
X109444713Y-51524023D01*
X109408632Y-51583856D01*
X109345931Y-51614684D01*
X109324787Y-51616500D01*
X89207438Y-51616500D01*
X89140399Y-51596815D01*
X89138547Y-51595602D01*
X88996353Y-51500590D01*
X88996340Y-51500583D01*
X88832467Y-51432706D01*
X88832458Y-51432703D01*
X88658494Y-51398100D01*
X88658491Y-51398100D01*
X88481109Y-51398100D01*
X88481106Y-51398100D01*
X88307141Y-51432703D01*
X88307132Y-51432706D01*
X88143259Y-51500583D01*
X88143246Y-51500590D01*
X87995765Y-51599135D01*
X87995761Y-51599138D01*
X87870338Y-51724561D01*
X87870335Y-51724565D01*
X87771790Y-51872046D01*
X87771783Y-51872059D01*
X87703906Y-52035932D01*
X87703903Y-52035941D01*
X87669300Y-52209904D01*
X80773241Y-52209904D01*
X80747946Y-33512016D01*
X80747545Y-33215468D01*
X80767139Y-33148402D01*
X80819881Y-33102575D01*
X80871545Y-33091300D01*
X87436628Y-33091300D01*
X87503667Y-33110985D01*
G37*
G04 #@! TD.AperFunction*
M02*
